<?xml version="1.0" encoding="UTF-8" standalone="no"?>
<!-- Created with Inkscape (http://www.inkscape.org/) -->

<svg xmlns:inkscape="http://www.inkscape.org/namespaces/inkscape" xmlns:sodipodi="http://sodipodi.sourceforge.net/DTD/sodipodi-0.dtd" xmlns:xlink="http://www.w3.org/1999/xlink" xmlns="http://www.w3.org/2000/svg" xmlns:svg="http://www.w3.org/2000/svg" xmlns:rdf="http://www.w3.org/1999/02/22-rdf-syntax-ns#" xmlns:cc="http://creativecommons.org/ns#" xmlns:dc="http://purl.org/dc/elements/1.1/" width="96" height="96" id="svg6517" version="1.1" inkscape:version="0.91+devel r" sodipodi:docname="hw_storm.svg" viewBox="0 0 96 96">
  <defs id="defs6519">
    <linearGradient id="linearGradient4278" inkscape:collect="always">
      <stop id="stop4280" offset="0" style="stop-color:#247eca;stop-opacity:1"></stop>
      <stop id="stop4282" offset="1" style="stop-color:#247eca;stop-opacity:0"></stop>
    </linearGradient>
    <linearGradient id="linearGradient4272" inkscape:collect="always">
      <stop id="stop4274" offset="0" style="stop-color:#b6e2f3;stop-opacity:1"></stop>
      <stop id="stop4276" offset="1" style="stop-color:#b6e2f3;stop-opacity:0"></stop>
    </linearGradient>
    <inkscape:path-effect effect="envelope" id="path-effect4253" is_visible="true" yy="true" xx="true" bendpath1="m -215.76126,697.1481 139.143385,0" bendpath2="m -76.617875,697.1481 0,90.93889" bendpath3="m -215.76126,788.08699 139.143385,0" bendpath4="m -215.76126,697.1481 0,90.93889"></inkscape:path-effect>
    <inkscape:path-effect effect="bend_path" id="path-effect4251" is_visible="true" bendpath="m -215.76126,742.61754 139.143385,0" prop_scale="1.12" scale_y_rel="false" vertical="false"></inkscape:path-effect>
    <linearGradient id="Background">
      <stop id="stop4178" offset="0" style="stop-color:#22779e;stop-opacity:1"></stop>
      <stop id="stop4180" offset="1" style="stop-color:#2991c0;stop-opacity:1"></stop>
    </linearGradient>
    <filter style="color-interpolation-filters:sRGB;" inkscape:label="Inner Shadow" id="filter1121">
      <feFlood flood-opacity="0.59999999999999998" flood-color="rgb(0,0,0)" result="flood" id="feFlood1123"></feFlood>
      <feComposite in="flood" in2="SourceGraphic" operator="out" result="composite1" id="feComposite1125"></feComposite>
      <feGaussianBlur in="composite1" stdDeviation="1" result="blur" id="feGaussianBlur1127"></feGaussianBlur>
      <feOffset dx="0" dy="2" result="offset" id="feOffset1129"></feOffset>
      <feComposite in="offset" in2="SourceGraphic" operator="atop" result="composite2" id="feComposite1131"></feComposite>
    </filter>
    <filter style="color-interpolation-filters:sRGB;" inkscape:label="Drop Shadow" id="filter950">
      <feFlood flood-opacity="0.25" flood-color="rgb(0,0,0)" result="flood" id="feFlood952"></feFlood>
      <feComposite in="flood" in2="SourceGraphic" operator="in" result="composite1" id="feComposite954"></feComposite>
      <feGaussianBlur in="composite1" stdDeviation="1" result="blur" id="feGaussianBlur956"></feGaussianBlur>
      <feOffset dx="0" dy="1" result="offset" id="feOffset958"></feOffset>
      <feComposite in="SourceGraphic" in2="offset" operator="over" result="composite2" id="feComposite960"></feComposite>
    </filter>
    <clipPath clipPathUnits="userSpaceOnUse" id="clipPath873">
      <g transform="matrix(0,-0.66666667,0.66604479,0,-258.25992,677.00001)" id="g875" inkscape:label="Layer 1" style="fill:#ff00ff;fill-opacity:1;stroke:none;display:inline">
        <path style="fill:#ff00ff;fill-opacity:1;stroke:none;display:inline" d="m 46.702703,898.22775 50.594594,0 C 138.16216,898.22775 144,904.06497 144,944.92583 l 0,50.73846 c 0,40.86071 -5.83784,46.69791 -46.702703,46.69791 l -50.594594,0 C 5.8378378,1042.3622 0,1036.525 0,995.66429 L 0,944.92583 C 0,904.06497 5.8378378,898.22775 46.702703,898.22775 Z" id="path877" inkscape:connector-curvature="0" sodipodi:nodetypes="sssssssss"></path>
      </g>
    </clipPath>
    <filter inkscape:collect="always" id="filter891" inkscape:label="Badge Shadow">
      <feGaussianBlur inkscape:collect="always" stdDeviation="0.71999962" id="feGaussianBlur893"></feGaussianBlur>
    </filter>
    <style id="style867" type="text/css">
    .fil0 {fill:#1F1A17}
   </style>
    <linearGradient inkscape:collect="always" xlink:href="#linearGradient4439" id="linearGradient908" x1="-220" y1="731.29077" x2="-220" y2="635.29077" gradientUnits="userSpaceOnUse"></linearGradient>
    <clipPath id="clipPath16">
      <path id="path18" d="m -9,-9 614,0 0,231 -614,0 0,-231 z"></path>
    </clipPath>
    <clipPath id="clipPath116">
      <path id="path118" d="m 91.7368,146.3253 -9.7039,-1.577 -8.8548,-3.8814 -7.5206,-4.7308 -7.1566,-8.7335 -4.0431,-4.282 -3.9093,-1.4409 -1.034,2.5271 1.8079,2.6096 0.4062,3.6802 1.211,-0.0488 1.3232,-1.2069 -0.3569,3.7488 -1.4667,0.9839 0.0445,1.4286 -3.4744,-1.9655 -3.1462,-3.712 -0.6559,-3.3176 1.3453,-2.6567 1.2549,-4.5133 2.5521,-1.2084 2.6847,0.1318 2.5455,1.4791 -1.698,-8.6122 1.698,-9.5825 -1.8692,-4.4246 -6.1223,-6.5965 1.0885,-3.941 2.9002,-4.5669 5.4688,-3.8486 2.9007,-0.3969 3.225,-0.1094 -2.012,-8.2601 7.3993,-3.0326 9.2188,-1.2129 3.1535,2.0619 0.2427,5.5797 3.5178,5.8224 0.2426,4.6094 8.4909,-0.6066 7.8843,0.7279 -7.8843,-4.7307 1.3343,-5.701 4.9731,-7.763 4.8521,-2.0622 3.8814,1.5769 1.577,3.1538 8.1269,6.1861 1.5769,-1.3343 12.7363,-0.485 2.5473,2.0619 0.2426,3.6391 -0.849,1.5767 -0.6066,9.8251 -4.2454,8.4909 0.7276,3.7605 2.5475,-1.3343 7.1566,-6.6716 3.5175,-0.2424 3.8815,1.5769 3.8818,2.9109 1.9406,6.3077 11.4021,-0.7277 6.914,2.6686 5.5797,5.2157 4.0028,7.5206 0.9706,8.8546 -0.8493,10.3105 -2.1832,9.2185 -2.1836,2.9112 -3.0322,0.9706 -5.3373,-5.8224 -4.8518,-1.6982 -4.2455,7.0353 -4.2454,3.8815 -2.3049,1.4556 -9.2185,7.6419 -7.3993,4.0028 -7.3993,0.6066 -8.6119,-1.4556 -7.5206,-2.7899 -5.2158,-4.2454 -4.1241,-4.9734 -4.2454,-1.2129"></path>
    </clipPath>
    <clipPath id="clipPath128">
      <path id="path130" d="m 91.7368,146.3253 -9.7039,-1.577 -8.8548,-3.8814 -7.5206,-4.7308 -7.1566,-8.7335 -4.0431,-4.282 -3.9093,-1.4409 -1.034,2.5271 1.8079,2.6096 0.4062,3.6802 1.211,-0.0488 1.3232,-1.2069 -0.3569,3.7488 -1.4667,0.9839 0.0445,1.4286 -3.4744,-1.9655 -3.1462,-3.712 -0.6559,-3.3176 1.3453,-2.6567 1.2549,-4.5133 2.5521,-1.2084 2.6847,0.1318 2.5455,1.4791 -1.698,-8.6122 1.698,-9.5825 -1.8692,-4.4246 -6.1223,-6.5965 1.0885,-3.941 2.9002,-4.5669 5.4688,-3.8486 2.9007,-0.3969 3.225,-0.1094 -2.012,-8.2601 7.3993,-3.0326 9.2188,-1.2129 3.1535,2.0619 0.2427,5.5797 3.5178,5.8224 0.2426,4.6094 8.4909,-0.6066 7.8843,0.7279 -7.8843,-4.7307 1.3343,-5.701 4.9731,-7.763 4.8521,-2.0622 3.8814,1.5769 1.577,3.1538 8.1269,6.1861 1.5769,-1.3343 12.7363,-0.485 2.5473,2.0619 0.2426,3.6391 -0.849,1.5767 -0.6066,9.8251 -4.2454,8.4909 0.7276,3.7605 2.5475,-1.3343 7.1566,-6.6716 3.5175,-0.2424 3.8815,1.5769 3.8818,2.9109 1.9406,6.3077 11.4021,-0.7277 6.914,2.6686 5.5797,5.2157 4.0028,7.5206 0.9706,8.8546 -0.8493,10.3105 -2.1832,9.2185 -2.1836,2.9112 -3.0322,0.9706 -5.3373,-5.8224 -4.8518,-1.6982 -4.2455,7.0353 -4.2454,3.8815 -2.3049,1.4556 -9.2185,7.6419 -7.3993,4.0028 -7.3993,0.6066 -8.6119,-1.4556 -7.5206,-2.7899 -5.2158,-4.2454 -4.1241,-4.9734 -4.2454,-1.2129"></path>
    </clipPath>
    <linearGradient id="linearGradient3850" inkscape:collect="always">
      <stop id="stop3852" offset="0" style="stop-color:#000000;stop-opacity:1;"></stop>
      <stop id="stop3854" offset="1" style="stop-color:#000000;stop-opacity:0;"></stop>
    </linearGradient>
    <clipPath clipPathUnits="userSpaceOnUse" id="clipPath3095">
      <path d="m 976.648,389.551 -842.402,0 0,839.999 842.402,0 0,-839.999" id="path3097" inkscape:connector-curvature="0"></path>
    </clipPath>
    <linearGradient id="linearGradient4439" inkscape:collect="always">
      <stop id="stop4441" offset="0" style="stop-color:#39b1ed;stop-opacity:1"></stop>
      <stop id="stop4443" offset="1" style="stop-color:#44cdf2;stop-opacity:1"></stop>
    </linearGradient>
    <clipPath clipPathUnits="userSpaceOnUse" id="clipPath3195">
      <path d="m 611.836,756.738 -106.34,105.207 c -8.473,8.289 -13.617,20.102 -13.598,33.379 L 598.301,790.207 c -0.031,-13.418 5.094,-25.031 13.535,-33.469" id="path3197" inkscape:connector-curvature="0"></path>
    </clipPath>
    <clipPath clipPathUnits="userSpaceOnUse" id="clipPath3235">
      <path d="m 1095.64,1501.81 c 35.46,-35.07 70.89,-70.11 106.35,-105.17 4.4,-4.38 7.11,-10.53 7.11,-17.55 l -106.37,105.21 c 0,7 -2.71,13.11 -7.09,17.51" id="path3237" inkscape:connector-curvature="0"></path>
    </clipPath>
    <clipPath id="clipPath4591" clipPathUnits="userSpaceOnUse">
      <path inkscape:connector-curvature="0" d="m 1106.6009,730.43734 -0.036,21.648 c -0.01,3.50825 -2.8675,6.61375 -6.4037,6.92525 l -83.6503,7.33162 c -3.5205,0.30763 -6.3812,-2.29987 -6.3671,-5.8145 l 0.036,-21.6475 20.1171,-1.76662 -0.011,4.63775 c 0,1.83937 1.4844,3.19925 3.3262,3.0395 l 49.5274,-4.33975 c 1.8425,-0.166 3.3425,-1.78125 3.3538,-3.626 l 0.01,-4.63025 20.1,-1.7575" style="fill:#ff00ff;fill-opacity:1;fill-rule:nonzero;stroke:none" id="path4593"></path>
    </clipPath>
    <radialGradient gradientUnits="userSpaceOnUse" gradientTransform="matrix(-1.4333926,-2.2742838,1.1731823,-0.73941125,-174.08025,98.374394)" r="20.40658" fy="93.399292" fx="-26.508606" cy="93.399292" cx="-26.508606" id="radialGradient3856" xlink:href="#linearGradient3850" inkscape:collect="always"></radialGradient>
    <linearGradient gradientTransform="translate(-318.48033,212.32022)" gradientUnits="userSpaceOnUse" y2="993.19702" x2="-51.879555" y1="593.11615" x1="348.20132" id="linearGradient3895" xlink:href="#linearGradient3850" inkscape:collect="always"></linearGradient>
    <clipPath id="clipPath3906" clipPathUnits="userSpaceOnUse">
      <rect transform="scale(1,-1)" style="opacity:0.8;color:#000000;fill:#ff00ff;stroke:none;stroke-width:4;marker:none;visibility:visible;display:inline;overflow:visible;enable-background:accumulate" id="rect3908" width="1019.1371" height="1019.1371" x="357.9816" y="-1725.8152"></rect>
    </clipPath>
    <filter style="color-interpolation-filters:sRGB" inkscape:label="Inner Shadow" id="filter1121-7">
      <feFlood flood-opacity="0.59999999999999998" flood-color="rgb(0,0,0)" result="flood" id="feFlood1123-8"></feFlood>
      <feComposite in="flood" in2="SourceGraphic" operator="out" result="composite1" id="feComposite1125-4"></feComposite>
      <feGaussianBlur in="composite1" stdDeviation="1" result="blur" id="feGaussianBlur1127-8"></feGaussianBlur>
      <feOffset dx="0" dy="2" result="offset" id="feOffset1129-7"></feOffset>
      <feComposite in="offset" in2="SourceGraphic" operator="atop" result="composite2" id="feComposite1131-8"></feComposite>
    </filter>
    <linearGradient inkscape:collect="always" xlink:href="#linearGradient4272" id="linearGradient4293" x1="61.724815" y1="60.486755" x2="105.60001" y2="48.000011" gradientUnits="userSpaceOnUse"></linearGradient>
    <linearGradient inkscape:collect="always" xlink:href="#linearGradient4278" id="linearGradient4301" x1="57.529388" y1="52.851879" x2="-5.595726" y2="70.892845" gradientUnits="userSpaceOnUse"></linearGradient>
    <linearGradient inkscape:collect="always" xlink:href="#linearGradient4278" id="linearGradient4307" gradientUnits="userSpaceOnUse" x1="57.529388" y1="52.851879" x2="-5.595726" y2="70.892845" gradientTransform="matrix(-0.12987249,0.9915307,-0.9915307,-0.12987249,112.98532,15.539208)"></linearGradient>
    <linearGradient inkscape:collect="always" xlink:href="#linearGradient4272" id="linearGradient4309" gradientUnits="userSpaceOnUse" x1="61.724815" y1="60.486755" x2="105.60001" y2="48.000011" gradientTransform="matrix(-0.12987249,0.9915307,-0.9915307,-0.12987249,112.98532,15.539208)"></linearGradient>
    <clipPath clipPathUnits="userSpaceOnUse" id="clipPath4336">
      <path style="display:inline;opacity:0.06300001;fill:#df382c;fill-opacity:1;stroke:none" d="m -1.8530274e-8,64.86487 0,-33.72973 C -1.8530274e-8,3.8919 3.8878496,1.038147e-5 31.10302,1.038147e-5 l 33.79408,0 C 92.11217,1.038147e-5 96,3.8919 96,31.13514 l 0,33.72973 c 0,27.24325 -3.88783,31.13514 -31.1029,31.13514 l -33.79408,0 C 3.8878496,96.00001 -1.8530274e-8,92.10812 -1.8530274e-8,64.86487 Z" id="path4338" inkscape:connector-curvature="0" sodipodi:nodetypes="sssssssss"></path>
    </clipPath>
  </defs>
  <sodipodi:namedview id="base" pagecolor="#ffffff" bordercolor="#666666" borderopacity="1.0" inkscape:pageopacity="0.0" inkscape:pageshadow="2" inkscape:zoom="2.0861625" inkscape:cx="76.02204" inkscape:cy="31.409969" inkscape:document-units="px" inkscape:current-layer="g4319" showgrid="false" fit-margin-top="0" fit-margin-left="0" fit-margin-right="0" fit-margin-bottom="0" inkscape:window-width="1920" inkscape:window-height="1029" inkscape:window-x="0" inkscape:window-y="24" inkscape:window-maximized="1" showborder="true" showguides="false" inkscape:guide-bbox="true" inkscape:showpageshadow="false" inkscape:snap-global="false" inkscape:snap-bbox="true" inkscape:bbox-paths="true" inkscape:bbox-nodes="true" inkscape:snap-bbox-edge-midpoints="true" inkscape:snap-bbox-midpoints="true" inkscape:object-paths="true" inkscape:snap-intersection-paths="true" inkscape:object-nodes="true" inkscape:snap-smooth-nodes="true" inkscape:snap-midpoints="true" inkscape:snap-object-midpoints="true" inkscape:snap-center="true">
    <inkscape:grid type="xygrid" id="grid821"></inkscape:grid>
    <sodipodi:guide orientation="1,0" position="16,48" id="guide823"></sodipodi:guide>
    <sodipodi:guide orientation="0,1" position="64,80" id="guide825"></sodipodi:guide>
    <sodipodi:guide orientation="1,0" position="80,40" id="guide827"></sodipodi:guide>
    <sodipodi:guide orientation="0,1" position="64,16" id="guide829"></sodipodi:guide>
  </sodipodi:namedview>
  <metadata id="metadata6522">
    <rdf:RDF>
      <cc:Work rdf:about="">
        <dc:format>image/svg+xml</dc:format>
        <dc:type rdf:resource="http://purl.org/dc/dcmitype/StillImage"></dc:type>
        <dc:title></dc:title>
      </cc:Work>
    </rdf:RDF>
  </metadata>
  <g inkscape:label="BACKGROUND" inkscape:groupmode="layer" id="layer1" transform="translate(268,-635.29076)" style="display:inline" sodipodi:insensitive="true">
    <path style="display:inline;fill:url(#linearGradient908);fill-opacity:1;stroke:none;filter:url(#filter1121)" d="m -268,700.15563 0,-33.72973 c 0,-27.24324 3.88785,-31.13513 31.10302,-31.13513 l 33.79408,0 c 27.21507,0 31.1029,3.89189 31.1029,31.13513 l 0,33.72973 c 0,27.24325 -3.88783,31.13514 -31.1029,31.13514 l -33.79408,0 c -27.21517,0 -31.10302,-3.89189 -31.10302,-31.13514 z" id="path6455" inkscape:connector-curvature="0" sodipodi:nodetypes="sssssssss"></path>
  </g>
  <g inkscape:groupmode="layer" id="layer4" inkscape:label="FOLDS" style="display:inline">
    <g inkscape:groupmode="maskhelper" id="g4327" clip-path="url(#clipPath4336)">
      <g id="g4319" transform="matrix(0.8509961,-0.52517201,0.52517201,0.8509961,-14.143942,20.261604)">
        <g id="g4315" style="opacity:0.08200001" transform="matrix(0.03526247,-0.99937808,0.99937808,0.03526247,-0.87673139,87.587866)">
          <path sodipodi:nodetypes="cccccc" inkscape:connector-curvature="0" id="path4283" d="M 41.869796,-11.349643 81.579838,132.32315 -41.231687,113.4253 -32.887179,15.500039 13.253042,-17.632567 Z" style="color:#000000;display:inline;overflow:visible;visibility:visible;opacity:1;fill:url(#linearGradient4301);fill-opacity:1;fill-rule:nonzero;stroke:none;stroke-width:4;stroke-linecap:round;stroke-linejoin:round;stroke-miterlimit:4;stroke-dasharray:none;stroke-dashoffset:0;stroke-opacity:1;marker:none;enable-background:accumulate"></path>
          <path sodipodi:nodetypes="ccccc" inkscape:connector-curvature="0" id="path4285" d="M 41.869796,-11.349643 81.579838,132.32315 140.58042,104.05 135.86823,-12.773118 Z" style="color:#000000;display:inline;overflow:visible;visibility:visible;opacity:1;fill:url(#linearGradient4293);fill-opacity:1;fill-rule:nonzero;stroke:none;stroke-width:4;stroke-linecap:round;stroke-linejoin:round;stroke-miterlimit:4;stroke-dasharray:none;stroke-dashoffset:0;stroke-opacity:1;marker:none;enable-background:accumulate"></path>
        </g>
        <g id="g4311" transform="matrix(0.155828,0.98778421,-0.98778421,0.155828,133.06291,-2.8573395)" style="opacity:0.122">
          <path style="color:#000000;display:inline;overflow:visible;visibility:visible;opacity:1;fill:url(#linearGradient4307);fill-opacity:1;fill-rule:nonzero;stroke:none;stroke-width:4;stroke-linecap:round;stroke-linejoin:round;stroke-miterlimit:4;stroke-dasharray:none;stroke-dashoffset:0;stroke-opacity:1;marker:none;enable-background:accumulate" d="M 118.8011,58.528402 -28.812125,79.242985 5.8755118,-40.074102 l 96.0121782,20.991633 26.85965,50.05246 z" id="path4303" inkscape:connector-curvature="0" sodipodi:nodetypes="cccccc"></path>
          <path style="color:#000000;display:inline;overflow:visible;visibility:visible;opacity:1;fill:url(#linearGradient4309);fill-opacity:1;fill-rule:nonzero;stroke:none;stroke-width:4;stroke-linecap:round;stroke-linejoin:round;stroke-miterlimit:4;stroke-dasharray:none;stroke-dashoffset:0;stroke-opacity:1;marker:none;enable-background:accumulate" d="M 118.8011,58.528402 -28.812125,79.242985 -8.4409816,141.41578 108.00471,151.91561 Z" id="path4305" inkscape:connector-curvature="0" sodipodi:nodetypes="ccccc"></path>
        </g>
      </g>
    </g>
  </g>
  <g inkscape:groupmode="layer" id="layer3" inkscape:label="PLACE YOUR PICTOGRAM HERE" style="display:inline" sodipodi:insensitive="true">
    <path style="color:#000000;font-style:normal;font-variant:normal;font-weight:normal;font-stretch:normal;font-size:medium;line-height:normal;font-family:sans-serif;text-indent:0;text-align:start;text-decoration:none;text-decoration-line:none;text-decoration-style:solid;text-decoration-color:#000000;letter-spacing:normal;word-spacing:normal;text-transform:none;direction:ltr;block-progression:tb;writing-mode:lr-tb;baseline-shift:baseline;text-anchor:start;white-space:normal;clip-rule:nonzero;display:inline;overflow:visible;visibility:visible;opacity:1;isolation:auto;mix-blend-mode:normal;color-interpolation:sRGB;color-interpolation-filters:linearRGB;solid-color:#000000;solid-opacity:1;fill:#1498d7;fill-opacity:1;fill-rule:nonzero;stroke:none;stroke-width:1;stroke-linecap:round;stroke-linejoin:round;stroke-miterlimit:4;stroke-dasharray:none;stroke-dashoffset:0;stroke-opacity:1;marker:none;color-rendering:auto;image-rendering:auto;shape-rendering:auto;text-rendering:auto;enable-background:accumulate" d="m 48.916016,18.6875 c -1.494049,0 -3.060102,0.613519 -4.160157,1.65625 l -6.492187,6.154297 c -0.234016,-0.238252 -0.456978,-0.502852 -0.72461,-0.658203 l -0.002,-0.002 c -0.02503,-0.01464 -0.04881,-0.02731 -0.07422,-0.04102 a 0.50005,0.50005 0 0 0 -0.0039,-0.002 l -3.033203,-1.615234 -0.01367,-0.0078 A 0.50005,0.50005 0 0 0 34.123007,24.1171 c -0.821781,-0.396585 -1.732286,-0.6796 -2.583945,-0.6796 l -6.410156,0 c -0.443635,0 -1.093595,0.01142 -1.802734,0.332031 -0.708895,0.320497 -1.146141,0.801037 -1.4375,1.13086 L 19.039062,28.125 c -0.001,0.0011 -8.99e-4,0.0028 -0.002,0.0039 l -0.002,0.002 c -1.045345,1.154881 -1.474609,2.729488 -1.474609,4.046875 l 0,7.300782 c 0,0.585364 0.107324,1.375193 0.5625,2.078125 0.431924,0.667026 0.955399,0.999811 1.267578,1.208984 0.02262,0.01591 0.04544,0.03187 0.06836,0.04687 a 0.50005,0.50005 0 0 0 0.0078,0.0059 l 9.699219,6.050782 0.01758,0.01172 a 0.50005,0.50005 0 0 0 0.169922,0.06445 c 0.927564,0.547272 2.026521,0.838483 3.005859,0.839844 l 8.607422,0.01172 -5.697266,10.964844 c -0.322791,0.593846 -0.594271,1.226962 -0.667969,2.001953 -0.07962,0.837219 0.161853,1.829363 0.804688,2.552734 1.170571,1.317225 2.577472,1.271485 3.503906,1.271485 l 1.824219,0 -3.705078,11.988281 a 0.50005,0.50005 0 0 0 -0.01953,0.09961 c -0.140055,0.449746 -0.26021,0.881378 -0.296875,1.400391 -0.01872,0.264908 -0.03278,0.642268 0.09961,1.11914 0.147946,0.532888 0.551001,1.284007 1.384766,1.703126 0.81981,0.412101 1.619466,0.292879 2.089843,0.136718 0.439391,-0.145875 0.735294,-0.345136 0.951172,-0.503906 0.443568,-0.326224 0.780008,-0.682767 1.136719,-1.09375 a 0.50005,0.50005 0 0 0 0.002,0 l 17.447266,-19.519531 0.002,-0.002 c 0.02183,-0.02413 0.04167,-0.04931 0.0625,-0.07422 a 0.50005,0.50005 0 0 0 0.0039,-0.002 c 0.67591,-0.820298 1.224726,-2.243788 0.541016,-3.605469 -0.672862,-1.340074 -2.038132,-1.742187 -3.027344,-1.742187 l -2.333984,0 5.027343,-4.792969 a 0.50005,0.50005 0 0 0 0.0039,-0.0039 c 0.008,-0.0078 0.01555,-0.01552 0.02344,-0.02344 l 0.01758,-0.01758 1.96875,-1.828125 6.730469,0.0098 0.002,0 c 1.629834,0 3.404906,-0.535571 4.796875,-1.853516 L 76.625,45.160156 c 0.03601,-0.03393 0.06958,-0.06751 0.103516,-0.103515 a 0.50005,0.50005 0 0 0 0.002,-0.002 C 77.677811,44.045368 78.4395,42.474254 78.4395,40.701125 l 0,-7.90625 c 0,-0.736178 -0.108098,-1.586645 -0.509765,-2.382813 -0.394471,-0.781901 -0.949634,-1.338452 -1.501954,-1.828125 l -9.21289,-8.167968 C 65.952984,19.247035 64.255065,18.6875 62.587891,18.6875 l -13.671875,0 z" id="path4240" inkscape:connector-curvature="0"></path>
    <path style="color:#000000;display:inline;overflow:visible;visibility:visible;opacity:1;fill:#0c5a80;fill-opacity:1;fill-rule:nonzero;stroke:none;stroke-width:1.5;stroke-linecap:round;stroke-linejoin:round;stroke-miterlimit:4;stroke-dasharray:none;stroke-dashoffset:0;stroke-opacity:1;marker:none;enable-background:accumulate" d="M 46.474723,22.158425 25.076697,42.441421 c -0.386312,0.401517 -0.314353,0.709371 0.125403,1.007634 l 5.306569,3.310187 c 0.652262,0.427506 1.064702,0.524273 1.852177,0.525368 l 36.484919,0.05072 c 1.374949,0 2.000986,-0.149148 3.078004,-1.168891 l 2.981695,-2.82313 c 0.717164,-0.764085 1.033013,-1.339068 1.033013,-2.642367 l 0,-7.905748 c 0,-1.04177 -0.256808,-1.530687 -1.169573,-2.339921 L 65.514802,22.25083 c -0.943656,-0.874266 -1.556124,-1.063332 -2.927633,-1.063332 l -13.670355,2e-6 c -1.173918,0 -1.583511,0.157085 -2.442091,0.970925 z m -22.713019,4.397057 -2.870581,3.24954 c -0.743592,0.819082 -0.8296,1.271529 -0.8296,2.372536 l 0,7.301616 c 0,0.655706 0.18559,0.853234 0.728613,1.217482 l 1.576951,0.983613 c 0.507392,0.320504 0.856176,0.47592 1.441158,-0.102797 L 36.42736,29.615261 c 0.561966,-0.571264 0.718224,-1.114858 -0.142475,-1.613413 L 33.239163,26.379581 C 32.644984,26.039118 32.21597,25.9375 31.538663,25.9375 l -6.408926,0 c -0.711238,0 -0.897816,0.08569 -1.368033,0.617982 z" id="path4291" inkscape:connector-curvature="0" sodipodi:nodetypes="cccccccccccccccccccccccccccc"></path>
    <path style="color:#000000;display:inline;overflow:visible;visibility:visible;opacity:1;fill:#e3f8fe;fill-opacity:1;fill-rule:nonzero;stroke:none;stroke-width:1.5;stroke-linecap:round;stroke-linejoin:round;stroke-miterlimit:4;stroke-dasharray:none;stroke-dashoffset:0;stroke-opacity:1;marker:none;enable-background:accumulate" d="m 43.867887,49.635975 -6.399049,12.312709 c -0.92483,1.698297 -0.07347,2.138526 1.442264,2.138526 l 3.640794,0 c 0.740144,0 1.081832,-0.14242 1.67124,-0.704471 L 58.372071,49.890542 c 0.598338,-0.598337 0.287095,-1.211535 -0.62849,-1.211535 l -11.57525,0 c -1.368987,0 -1.806421,0.0984 -2.300444,0.956968 z m 6.662366,9.805424 -6.548835,6.246058 c -0.405533,0.355751 -0.553601,0.652601 -0.710552,1.160422 L 39.41748,79.315626 c -0.504283,1.580287 -0.120094,1.861451 1.09006,0.462182 L 57.962783,60.250193 c 0.582476,-0.706905 0.231073,-1.258686 -0.556514,-1.258686 l -5.755384,0 c -0.581461,0 -0.747921,0.118704 -1.120632,0.449892 z" id="path4311" inkscape:connector-curvature="0" sodipodi:nodetypes="cccccccccccccccccc"></path>
  </g>
  <g inkscape:groupmode="layer" id="layer2" inkscape:label="BADGE" style="display:none" sodipodi:insensitive="true">
    <g style="display:inline" transform="translate(-340.00001,-581)" id="g4394" clip-path="none">
      <g id="g855">
        <g inkscape:groupmode="maskhelper" id="g870" clip-path="url(#clipPath873)" style="opacity:0.6;filter:url(#filter891)">
          <path transform="matrix(1.4999992,0,0,1.4999992,-29.999795,-237.54282)" d="m 264,552.36218 a 12,12 0 0 1 -12,12 12,12 0 0 1 -12,-12 12,12 0 0 1 12,-12 12,12 0 0 1 12,12 z" sodipodi:ry="12" sodipodi:rx="12" sodipodi:cy="552.36218" sodipodi:cx="252" id="path844" style="color:#000000;fill:#000000;fill-opacity:1;fill-rule:nonzero;stroke:none;stroke-width:4;marker:none;visibility:visible;display:inline;overflow:visible;enable-background:accumulate" sodipodi:type="arc"></path>
        </g>
        <g id="g862">
          <path sodipodi:type="arc" style="color:#000000;fill:#f5f5f5;fill-opacity:1;fill-rule:nonzero;stroke:none;stroke-width:4;marker:none;visibility:visible;display:inline;overflow:visible;enable-background:accumulate" id="path4398" sodipodi:cx="252" sodipodi:cy="552.36218" sodipodi:rx="12" sodipodi:ry="12" d="m 264,552.36218 a 12,12 0 0 1 -12,12 12,12 0 0 1 -12,-12 12,12 0 0 1 12,-12 12,12 0 0 1 12,12 z" transform="matrix(1.4999992,0,0,1.4999992,-29.999795,-238.54282)"></path>
          <path transform="matrix(1.25,0,0,1.25,33,-100.45273)" d="m 264,552.36218 a 12,12 0 0 1 -12,12 12,12 0 0 1 -12,-12 12,12 0 0 1 12,-12 12,12 0 0 1 12,12 z" sodipodi:ry="12" sodipodi:rx="12" sodipodi:cy="552.36218" sodipodi:cx="252" id="path4400" style="color:#000000;fill:#dd4814;fill-opacity:1;fill-rule:nonzero;stroke:none;stroke-width:4;marker:none;visibility:visible;display:inline;overflow:visible;enable-background:accumulate" sodipodi:type="arc"></path>
          <path sodipodi:type="star" style="color:#000000;fill:#f5f5f5;fill-opacity:1;fill-rule:nonzero;stroke:none;stroke-width:3;marker:none;visibility:visible;display:inline;overflow:visible;enable-background:accumulate" id="path4459" sodipodi:sides="5" sodipodi:cx="666.19574" sodipodi:cy="589.50385" sodipodi:r1="7.2431178" sodipodi:r2="4.3458705" sodipodi:arg1="1.0471976" sodipodi:arg2="1.6755161" inkscape:flatsided="false" inkscape:rounded="0.1" inkscape:randomized="0" d="m 669.8173,595.77657 c -0.39132,0.22593 -3.62645,-1.90343 -4.07583,-1.95066 -0.44938,-0.0472 -4.05653,1.36297 -4.39232,1.06062 -0.3358,-0.30235 0.68963,-4.03715 0.59569,-4.47913 -0.0939,-0.44198 -2.5498,-3.43681 -2.36602,-3.8496 0.18379,-0.41279 4.05267,-0.59166 4.44398,-0.81759 0.39132,-0.22593 2.48067,-3.48704 2.93005,-3.4398 0.44938,0.0472 1.81505,3.67147 2.15084,3.97382 0.3358,0.30236 4.08294,1.2817 4.17689,1.72369 0.0939,0.44198 -2.9309,2.86076 -3.11469,3.27355 -0.18379,0.41279 0.0427,4.27917 -0.34859,4.5051 z" transform="matrix(1.511423,-0.16366377,0.16366377,1.511423,-755.37346,-191.93651)"></path>
        </g>
      </g>
    </g>
  </g>
</svg>
