<?xml version="1.0" encoding="UTF-8" standalone="no"?>
<!-- Created with Inkscape (http://www.inkscape.org/) -->

<svg xmlns:inkscape="http://www.inkscape.org/namespaces/inkscape" xmlns:sodipodi="http://sodipodi.sourceforge.net/DTD/sodipodi-0.dtd" xmlns:xlink="http://www.w3.org/1999/xlink" xmlns="http://www.w3.org/2000/svg" xmlns:svg="http://www.w3.org/2000/svg" xmlns:rdf="http://www.w3.org/1999/02/22-rdf-syntax-ns#" xmlns:cc="http://creativecommons.org/ns#" xmlns:dc="http://purl.org/dc/elements/1.1/" width="96" height="96" id="svg6517" version="1.1" inkscape:version="0.91+devel r" sodipodi:docname="hw_tez.svg" viewBox="0 0 96 96">
  <defs id="defs6519">
    <linearGradient inkscape:collect="always" id="linearGradient4285">
      <stop style="stop-color:#ffffff;stop-opacity:1" offset="0" id="stop4287"></stop>
      <stop style="stop-color:#fdf3cb;stop-opacity:0" offset="1" id="stop4289"></stop>
    </linearGradient>
    <inkscape:path-effect effect="envelope" id="path-effect4253" is_visible="true" yy="true" xx="true" bendpath1="m -215.76126,697.1481 139.143385,0" bendpath2="m -76.617875,697.1481 0,90.93889" bendpath3="m -215.76126,788.08699 139.143385,0" bendpath4="m -215.76126,697.1481 0,90.93889"></inkscape:path-effect>
    <inkscape:path-effect effect="bend_path" id="path-effect4251" is_visible="true" bendpath="m -215.76126,742.61754 139.143385,0" prop_scale="1.12" scale_y_rel="false" vertical="false"></inkscape:path-effect>
    <linearGradient id="Background">
      <stop id="stop4178" offset="0" style="stop-color:#22779e;stop-opacity:1"></stop>
      <stop id="stop4180" offset="1" style="stop-color:#2991c0;stop-opacity:1"></stop>
    </linearGradient>
    <filter style="color-interpolation-filters:sRGB;" inkscape:label="Inner Shadow" id="filter1121">
      <feFlood flood-opacity="0.59999999999999998" flood-color="rgb(0,0,0)" result="flood" id="feFlood1123"></feFlood>
      <feComposite in="flood" in2="SourceGraphic" operator="out" result="composite1" id="feComposite1125"></feComposite>
      <feGaussianBlur in="composite1" stdDeviation="1" result="blur" id="feGaussianBlur1127"></feGaussianBlur>
      <feOffset dx="0" dy="2" result="offset" id="feOffset1129"></feOffset>
      <feComposite in="offset" in2="SourceGraphic" operator="atop" result="composite2" id="feComposite1131"></feComposite>
    </filter>
    <filter style="color-interpolation-filters:sRGB;" inkscape:label="Drop Shadow" id="filter950">
      <feFlood flood-opacity="0.25" flood-color="rgb(0,0,0)" result="flood" id="feFlood952"></feFlood>
      <feComposite in="flood" in2="SourceGraphic" operator="in" result="composite1" id="feComposite954"></feComposite>
      <feGaussianBlur in="composite1" stdDeviation="1" result="blur" id="feGaussianBlur956"></feGaussianBlur>
      <feOffset dx="0" dy="1" result="offset" id="feOffset958"></feOffset>
      <feComposite in="SourceGraphic" in2="offset" operator="over" result="composite2" id="feComposite960"></feComposite>
    </filter>
    <clipPath clipPathUnits="userSpaceOnUse" id="clipPath873">
      <g transform="matrix(0,-0.66666667,0.66604479,0,-258.25992,677.00001)" id="g875" inkscape:label="Layer 1" style="fill:#ff00ff;fill-opacity:1;stroke:none;display:inline">
        <path style="fill:#ff00ff;fill-opacity:1;stroke:none;display:inline" d="m 46.702703,898.22775 50.594594,0 C 138.16216,898.22775 144,904.06497 144,944.92583 l 0,50.73846 c 0,40.86071 -5.83784,46.69791 -46.702703,46.69791 l -50.594594,0 C 5.8378378,1042.3622 0,1036.525 0,995.66429 L 0,944.92583 C 0,904.06497 5.8378378,898.22775 46.702703,898.22775 Z" id="path877" inkscape:connector-curvature="0" sodipodi:nodetypes="sssssssss"></path>
      </g>
    </clipPath>
    <filter inkscape:collect="always" id="filter891" inkscape:label="Badge Shadow">
      <feGaussianBlur inkscape:collect="always" stdDeviation="0.71999962" id="feGaussianBlur893"></feGaussianBlur>
    </filter>
    <style id="style867" type="text/css">
    .fil0 {fill:#1F1A17}
   </style>
    <linearGradient inkscape:collect="always" xlink:href="#linearGradient4439" id="linearGradient908" x1="-220" y1="731.29077" x2="-220" y2="635.29077" gradientUnits="userSpaceOnUse"></linearGradient>
    <clipPath id="clipPath16">
      <path id="path18" d="m -9,-9 614,0 0,231 -614,0 0,-231 z"></path>
    </clipPath>
    <clipPath id="clipPath116">
      <path id="path118" d="m 91.7368,146.3253 -9.7039,-1.577 -8.8548,-3.8814 -7.5206,-4.7308 -7.1566,-8.7335 -4.0431,-4.282 -3.9093,-1.4409 -1.034,2.5271 1.8079,2.6096 0.4062,3.6802 1.211,-0.0488 1.3232,-1.2069 -0.3569,3.7488 -1.4667,0.9839 0.0445,1.4286 -3.4744,-1.9655 -3.1462,-3.712 -0.6559,-3.3176 1.3453,-2.6567 1.2549,-4.5133 2.5521,-1.2084 2.6847,0.1318 2.5455,1.4791 -1.698,-8.6122 1.698,-9.5825 -1.8692,-4.4246 -6.1223,-6.5965 1.0885,-3.941 2.9002,-4.5669 5.4688,-3.8486 2.9007,-0.3969 3.225,-0.1094 -2.012,-8.2601 7.3993,-3.0326 9.2188,-1.2129 3.1535,2.0619 0.2427,5.5797 3.5178,5.8224 0.2426,4.6094 8.4909,-0.6066 7.8843,0.7279 -7.8843,-4.7307 1.3343,-5.701 4.9731,-7.763 4.8521,-2.0622 3.8814,1.5769 1.577,3.1538 8.1269,6.1861 1.5769,-1.3343 12.7363,-0.485 2.5473,2.0619 0.2426,3.6391 -0.849,1.5767 -0.6066,9.8251 -4.2454,8.4909 0.7276,3.7605 2.5475,-1.3343 7.1566,-6.6716 3.5175,-0.2424 3.8815,1.5769 3.8818,2.9109 1.9406,6.3077 11.4021,-0.7277 6.914,2.6686 5.5797,5.2157 4.0028,7.5206 0.9706,8.8546 -0.8493,10.3105 -2.1832,9.2185 -2.1836,2.9112 -3.0322,0.9706 -5.3373,-5.8224 -4.8518,-1.6982 -4.2455,7.0353 -4.2454,3.8815 -2.3049,1.4556 -9.2185,7.6419 -7.3993,4.0028 -7.3993,0.6066 -8.6119,-1.4556 -7.5206,-2.7899 -5.2158,-4.2454 -4.1241,-4.9734 -4.2454,-1.2129"></path>
    </clipPath>
    <clipPath id="clipPath128">
      <path id="path130" d="m 91.7368,146.3253 -9.7039,-1.577 -8.8548,-3.8814 -7.5206,-4.7308 -7.1566,-8.7335 -4.0431,-4.282 -3.9093,-1.4409 -1.034,2.5271 1.8079,2.6096 0.4062,3.6802 1.211,-0.0488 1.3232,-1.2069 -0.3569,3.7488 -1.4667,0.9839 0.0445,1.4286 -3.4744,-1.9655 -3.1462,-3.712 -0.6559,-3.3176 1.3453,-2.6567 1.2549,-4.5133 2.5521,-1.2084 2.6847,0.1318 2.5455,1.4791 -1.698,-8.6122 1.698,-9.5825 -1.8692,-4.4246 -6.1223,-6.5965 1.0885,-3.941 2.9002,-4.5669 5.4688,-3.8486 2.9007,-0.3969 3.225,-0.1094 -2.012,-8.2601 7.3993,-3.0326 9.2188,-1.2129 3.1535,2.0619 0.2427,5.5797 3.5178,5.8224 0.2426,4.6094 8.4909,-0.6066 7.8843,0.7279 -7.8843,-4.7307 1.3343,-5.701 4.9731,-7.763 4.8521,-2.0622 3.8814,1.5769 1.577,3.1538 8.1269,6.1861 1.5769,-1.3343 12.7363,-0.485 2.5473,2.0619 0.2426,3.6391 -0.849,1.5767 -0.6066,9.8251 -4.2454,8.4909 0.7276,3.7605 2.5475,-1.3343 7.1566,-6.6716 3.5175,-0.2424 3.8815,1.5769 3.8818,2.9109 1.9406,6.3077 11.4021,-0.7277 6.914,2.6686 5.5797,5.2157 4.0028,7.5206 0.9706,8.8546 -0.8493,10.3105 -2.1832,9.2185 -2.1836,2.9112 -3.0322,0.9706 -5.3373,-5.8224 -4.8518,-1.6982 -4.2455,7.0353 -4.2454,3.8815 -2.3049,1.4556 -9.2185,7.6419 -7.3993,4.0028 -7.3993,0.6066 -8.6119,-1.4556 -7.5206,-2.7899 -5.2158,-4.2454 -4.1241,-4.9734 -4.2454,-1.2129"></path>
    </clipPath>
    <linearGradient id="linearGradient3850" inkscape:collect="always">
      <stop id="stop3852" offset="0" style="stop-color:#000000;stop-opacity:1;"></stop>
      <stop id="stop3854" offset="1" style="stop-color:#000000;stop-opacity:0;"></stop>
    </linearGradient>
    <clipPath clipPathUnits="userSpaceOnUse" id="clipPath3095">
      <path d="m 976.648,389.551 -842.402,0 0,839.999 842.402,0 0,-839.999" id="path3097" inkscape:connector-curvature="0"></path>
    </clipPath>
    <linearGradient id="linearGradient4439" inkscape:collect="always">
      <stop id="stop4441" offset="0" style="stop-color:#ec8b0e;stop-opacity:1"></stop>
      <stop id="stop4443" offset="1" style="stop-color:#eca40e;stop-opacity:1"></stop>
    </linearGradient>
    <clipPath clipPathUnits="userSpaceOnUse" id="clipPath3195">
      <path d="m 611.836,756.738 -106.34,105.207 c -8.473,8.289 -13.617,20.102 -13.598,33.379 L 598.301,790.207 c -0.031,-13.418 5.094,-25.031 13.535,-33.469" id="path3197" inkscape:connector-curvature="0"></path>
    </clipPath>
    <clipPath clipPathUnits="userSpaceOnUse" id="clipPath3235">
      <path d="m 1095.64,1501.81 c 35.46,-35.07 70.89,-70.11 106.35,-105.17 4.4,-4.38 7.11,-10.53 7.11,-17.55 l -106.37,105.21 c 0,7 -2.71,13.11 -7.09,17.51" id="path3237" inkscape:connector-curvature="0"></path>
    </clipPath>
    <clipPath id="clipPath4591" clipPathUnits="userSpaceOnUse">
      <path inkscape:connector-curvature="0" d="m 1106.6009,730.43734 -0.036,21.648 c -0.01,3.50825 -2.8675,6.61375 -6.4037,6.92525 l -83.6503,7.33162 c -3.5205,0.30763 -6.3812,-2.29987 -6.3671,-5.8145 l 0.036,-21.6475 20.1171,-1.76662 -0.011,4.63775 c 0,1.83937 1.4844,3.19925 3.3262,3.0395 l 49.5274,-4.33975 c 1.8425,-0.166 3.3425,-1.78125 3.3538,-3.626 l 0.01,-4.63025 20.1,-1.7575" style="fill:#ff00ff;fill-opacity:1;fill-rule:nonzero;stroke:none" id="path4593"></path>
    </clipPath>
    <radialGradient gradientUnits="userSpaceOnUse" gradientTransform="matrix(-1.4333926,-2.2742838,1.1731823,-0.73941125,-174.08025,98.374394)" r="20.40658" fy="93.399292" fx="-26.508606" cy="93.399292" cx="-26.508606" id="radialGradient3856" xlink:href="#linearGradient3850" inkscape:collect="always"></radialGradient>
    <linearGradient gradientTransform="translate(-318.48033,212.32022)" gradientUnits="userSpaceOnUse" y2="993.19702" x2="-51.879555" y1="593.11615" x1="348.20132" id="linearGradient3895" xlink:href="#linearGradient3850" inkscape:collect="always"></linearGradient>
    <clipPath id="clipPath3906" clipPathUnits="userSpaceOnUse">
      <rect transform="scale(1,-1)" style="opacity:0.8;color:#000000;fill:#ff00ff;stroke:none;stroke-width:4;marker:none;visibility:visible;display:inline;overflow:visible;enable-background:accumulate" id="rect3908" width="1019.1371" height="1019.1371" x="357.9816" y="-1725.8152"></rect>
    </clipPath>
    <filter style="color-interpolation-filters:sRGB" inkscape:label="Inner Shadow" id="filter1121-7">
      <feFlood flood-opacity="0.59999999999999998" flood-color="rgb(0,0,0)" result="flood" id="feFlood1123-8"></feFlood>
      <feComposite in="flood" in2="SourceGraphic" operator="out" result="composite1" id="feComposite1125-4"></feComposite>
      <feGaussianBlur in="composite1" stdDeviation="1" result="blur" id="feGaussianBlur1127-8"></feGaussianBlur>
      <feOffset dx="0" dy="2" result="offset" id="feOffset1129-7"></feOffset>
      <feComposite in="offset" in2="SourceGraphic" operator="atop" result="composite2" id="feComposite1131-8"></feComposite>
    </filter>
    <clipPath clipPathUnits="userSpaceOnUse" id="clipPath4336">
      <path style="display:inline;opacity:0.06300001;fill:#df382c;fill-opacity:1;stroke:none" d="m -1.8530274e-8,64.86487 0,-33.72973 C -1.8530274e-8,3.8919 3.8878496,1.038147e-5 31.10302,1.038147e-5 l 33.79408,0 C 92.11217,1.038147e-5 96,3.8919 96,31.13514 l 0,33.72973 c 0,27.24325 -3.88783,31.13514 -31.1029,31.13514 l -33.79408,0 C 3.8878496,96.00001 -1.8530274e-8,92.10812 -1.8530274e-8,64.86487 Z" id="path4338" inkscape:connector-curvature="0" sodipodi:nodetypes="sssssssss"></path>
    </clipPath>
    <clipPath clipPathUnits="userSpaceOnUse" id="clipPath4336-7">
      <path style="display:inline;opacity:0.06300001;fill:#df382c;fill-opacity:1;stroke:none" d="m -1.8530274e-8,64.86487 0,-33.72973 C -1.8530274e-8,3.8919 3.8878496,1.038147e-5 31.10302,1.038147e-5 l 33.79408,0 C 92.11217,1.038147e-5 96,3.8919 96,31.13514 l 0,33.72973 c 0,27.24325 -3.88783,31.13514 -31.1029,31.13514 l -33.79408,0 C 3.8878496,96.00001 -1.8530274e-8,92.10812 -1.8530274e-8,64.86487 Z" id="path4338-6" inkscape:connector-curvature="0" sodipodi:nodetypes="sssssssss"></path>
    </clipPath>
    <linearGradient inkscape:collect="always" xlink:href="#linearGradient4275" id="linearGradient4307" gradientUnits="userSpaceOnUse" x1="57.529388" y1="52.851879" x2="-5.595726" y2="70.892845" gradientTransform="matrix(-0.12987249,0.9915307,-0.9915307,-0.12987249,112.98532,15.539208)"></linearGradient>
    <linearGradient id="linearGradient4275" inkscape:collect="always">
      <stop id="stop4277" offset="0" style="stop-color:#ea5420;stop-opacity:1"></stop>
      <stop id="stop4279" offset="1" style="stop-color:#ea5420;stop-opacity:0"></stop>
    </linearGradient>
    <linearGradient inkscape:collect="always" xlink:href="#linearGradient4269" id="linearGradient4309" gradientUnits="userSpaceOnUse" x1="61.724815" y1="60.486755" x2="105.60001" y2="48.000011" gradientTransform="matrix(-0.12987249,0.9915307,-0.9915307,-0.12987249,112.98532,15.539208)"></linearGradient>
    <linearGradient id="linearGradient4269" inkscape:collect="always">
      <stop id="stop4271" offset="0" style="stop-color:#fdf3cb;stop-opacity:1"></stop>
      <stop id="stop4273" offset="1" style="stop-color:#fdf3cb;stop-opacity:0"></stop>
    </linearGradient>
    <linearGradient inkscape:collect="always" xlink:href="#linearGradient4275" id="linearGradient4301" x1="57.529388" y1="52.851879" x2="-5.595726" y2="70.892845" gradientUnits="userSpaceOnUse"></linearGradient>
    <linearGradient inkscape:collect="always" xlink:href="#linearGradient4285" id="linearGradient4293" x1="61.724815" y1="60.486755" x2="105.60001" y2="48.000011" gradientUnits="userSpaceOnUse"></linearGradient>
  </defs>
  <sodipodi:namedview id="base" pagecolor="#ffffff" bordercolor="#666666" borderopacity="1.0" inkscape:pageopacity="0.0" inkscape:pageshadow="2" inkscape:zoom="6.3664627" inkscape:cx="29.889231" inkscape:cy="52.686447" inkscape:document-units="px" inkscape:current-layer="g4319" showgrid="false" fit-margin-top="0" fit-margin-left="0" fit-margin-right="0" fit-margin-bottom="0" inkscape:window-width="1920" inkscape:window-height="1029" inkscape:window-x="0" inkscape:window-y="24" inkscape:window-maximized="1" showborder="true" showguides="false" inkscape:guide-bbox="true" inkscape:showpageshadow="false" inkscape:snap-global="false" inkscape:snap-bbox="true" inkscape:bbox-paths="true" inkscape:bbox-nodes="true" inkscape:snap-bbox-edge-midpoints="true" inkscape:snap-bbox-midpoints="true" inkscape:object-paths="true" inkscape:snap-intersection-paths="true" inkscape:object-nodes="true" inkscape:snap-smooth-nodes="true" inkscape:snap-midpoints="true" inkscape:snap-object-midpoints="true" inkscape:snap-center="true">
    <inkscape:grid type="xygrid" id="grid821"></inkscape:grid>
    <sodipodi:guide orientation="1,0" position="16,48" id="guide823"></sodipodi:guide>
    <sodipodi:guide orientation="0,1" position="64,80" id="guide825"></sodipodi:guide>
    <sodipodi:guide orientation="1,0" position="80,40" id="guide827"></sodipodi:guide>
    <sodipodi:guide orientation="0,1" position="64,16" id="guide829"></sodipodi:guide>
  </sodipodi:namedview>
  <metadata id="metadata6522">
    <rdf:RDF>
      <cc:Work rdf:about="">
        <dc:format>image/svg+xml</dc:format>
        <dc:type rdf:resource="http://purl.org/dc/dcmitype/StillImage"></dc:type>
        <dc:title></dc:title>
      </cc:Work>
    </rdf:RDF>
  </metadata>
  <g inkscape:label="BACKGROUND" inkscape:groupmode="layer" id="layer1" transform="translate(268,-635.29076)" style="display:inline">
    <path style="display:inline;fill:url(#linearGradient908);fill-opacity:1;stroke:none;filter:url(#filter1121)" d="m -268,700.15563 0,-33.72973 c 0,-27.24324 3.88785,-31.13513 31.10302,-31.13513 l 33.79408,0 c 27.21507,0 31.1029,3.89189 31.1029,31.13513 l 0,33.72973 c 0,27.24325 -3.88783,31.13514 -31.1029,31.13514 l -33.79408,0 c -27.21517,0 -31.10302,-3.89189 -31.10302,-31.13514 z" id="path6455" inkscape:connector-curvature="0" sodipodi:nodetypes="sssssssss"></path>
    <path style="color:#000000;font-style:normal;font-variant:normal;font-weight:normal;font-stretch:normal;font-size:medium;line-height:normal;font-family:sans-serif;text-indent:0;text-align:start;text-decoration:none;text-decoration-line:none;text-decoration-style:solid;text-decoration-color:#000000;letter-spacing:normal;word-spacing:normal;text-transform:none;direction:ltr;block-progression:tb;writing-mode:lr-tb;baseline-shift:baseline;text-anchor:start;white-space:normal;clip-rule:nonzero;display:inline;overflow:visible;visibility:visible;opacity:1;isolation:auto;mix-blend-mode:normal;color-interpolation:sRGB;color-interpolation-filters:linearRGB;solid-color:#000000;solid-opacity:1;fill:#df382c;fill-opacity:1;fill-rule:nonzero;stroke:none;stroke-width:4;stroke-linecap:butt;stroke-linejoin:round;stroke-miterlimit:4;stroke-dasharray:none;stroke-dashoffset:0;stroke-opacity:1;marker:none;color-rendering:auto;image-rendering:auto;shape-rendering:auto;text-rendering:auto;enable-background:accumulate" d="m 360.57422,130.93555 -4.26367,3.85937 a 2.0002,2.0002 0 0 1 -0.15235,0.125 2.0002,2.0002 0 0 1 -0.16601,0.10938 2.0002,2.0002 0 0 1 -0.17578,0.0937 2.0002,2.0002 0 0 1 -0.18555,0.0762 2.0002,2.0002 0 0 1 -0.19141,0.0566 2.0002,2.0002 0 0 1 -0.19726,0.0371 2.0002,2.0002 0 0 1 -0.19922,0.0176 2.0002,2.0002 0 0 1 -0.19922,-0.002 l 0.8418,0.0527 a 2.0002,2.0002 0 0 0 0.002,0 l 4.88672,-4.42578 z" id="path4349" transform="translate(-268,635.29076)" inkscape:connector-curvature="0"></path>
    <path style="color:#000000;font-style:normal;font-variant:normal;font-weight:normal;font-stretch:normal;font-size:medium;line-height:normal;font-family:sans-serif;text-indent:0;text-align:start;text-decoration:none;text-decoration-line:none;text-decoration-style:solid;text-decoration-color:#000000;letter-spacing:normal;word-spacing:normal;text-transform:none;direction:ltr;block-progression:tb;writing-mode:lr-tb;baseline-shift:baseline;text-anchor:start;white-space:normal;clip-rule:nonzero;display:inline;overflow:visible;visibility:visible;opacity:1;isolation:auto;mix-blend-mode:normal;color-interpolation:sRGB;color-interpolation-filters:linearRGB;solid-color:#000000;solid-opacity:1;fill:#df382c;fill-opacity:1;fill-rule:nonzero;stroke:none;stroke-width:4;stroke-linecap:butt;stroke-linejoin:round;stroke-miterlimit:4;stroke-dasharray:none;stroke-dashoffset:0;stroke-opacity:1;marker:none;color-rendering:auto;image-rendering:auto;shape-rendering:auto;text-rendering:auto;enable-background:accumulate" d="m 353.9043,125.36133 -0.4375,-7.10742 0.43554,7.08593 a 2.0002,2.0002 0 0 1 0.002,0.0215 z" id="path4341" transform="translate(-268,635.29076)" inkscape:connector-curvature="0"></path>
    <path style="color:#000000;font-style:normal;font-variant:normal;font-weight:normal;font-stretch:normal;font-size:medium;line-height:normal;font-family:sans-serif;text-indent:0;text-align:start;text-decoration:none;text-decoration-line:none;text-decoration-style:solid;text-decoration-color:#000000;letter-spacing:normal;word-spacing:normal;text-transform:none;direction:ltr;block-progression:tb;writing-mode:lr-tb;baseline-shift:baseline;text-anchor:start;white-space:normal;clip-rule:nonzero;display:inline;overflow:visible;visibility:visible;opacity:1;isolation:auto;mix-blend-mode:normal;color-interpolation:sRGB;color-interpolation-filters:linearRGB;solid-color:#000000;solid-opacity:1;fill:#df382c;fill-opacity:1;fill-rule:nonzero;stroke:none;stroke-width:4;stroke-linecap:butt;stroke-linejoin:round;stroke-miterlimit:4;stroke-dasharray:none;stroke-dashoffset:0;stroke-opacity:1;marker:none;color-rendering:auto;image-rendering:auto;shape-rendering:auto;text-rendering:auto;enable-background:accumulate" d="m 344.88086,124.00977 -0.0332,1.51953 1.4414,0.41211 a 2.0002,2.0002 0 0 1 -1.4082,-1.93164 z" id="path4337" transform="translate(-268,635.29076)" inkscape:connector-curvature="0"></path>
  </g>
  <g inkscape:groupmode="layer" id="layer4" inkscape:label="FOLDS" style="display:inline">
    <g style="display:inline" inkscape:groupmode="maskhelper" id="g4327" clip-path="url(#clipPath4336-7)">
      <g id="g4319" transform="translate(4,0)">
        <g id="g4315" style="opacity:0.094" transform="matrix(0.93034296,-0.36669054,0.36669054,0.93034296,-43.759036,26.184992)">
          <path sodipodi:nodetypes="cccccc" inkscape:connector-curvature="0" id="path4283" d="M 41.869796,-11.349643 81.579838,132.32315 -41.231687,113.4253 -32.887179,15.500039 13.253042,-17.632567 Z" style="color:#000000;display:inline;overflow:visible;visibility:visible;opacity:1;fill:url(#linearGradient4301);fill-opacity:1;fill-rule:nonzero;stroke:none;stroke-width:4;stroke-linecap:round;stroke-linejoin:round;stroke-miterlimit:4;stroke-dasharray:none;stroke-dashoffset:0;stroke-opacity:1;marker:none;enable-background:accumulate"></path>
          <path sodipodi:nodetypes="ccccc" inkscape:connector-curvature="0" id="path4285" d="M 41.869796,-11.349643 81.579838,132.32315 140.58042,104.05 135.86823,-12.773118 Z" style="color:#000000;display:inline;overflow:visible;visibility:visible;opacity:1;fill:url(#linearGradient4293);fill-opacity:1;fill-rule:nonzero;stroke:none;stroke-width:4;stroke-linecap:round;stroke-linejoin:round;stroke-miterlimit:4;stroke-dasharray:none;stroke-dashoffset:0;stroke-opacity:1;marker:none;enable-background:accumulate"></path>
        </g>
        <g id="g4311" transform="matrix(0.66100394,-0.75038245,0.75038245,0.66100394,-65.3117,23.720244)" style="opacity:0.05899999">
          <path style="color:#000000;display:inline;overflow:visible;visibility:visible;opacity:1;fill:url(#linearGradient4307);fill-opacity:1;fill-rule:nonzero;stroke:none;stroke-width:4;stroke-linecap:round;stroke-linejoin:round;stroke-miterlimit:4;stroke-dasharray:none;stroke-dashoffset:0;stroke-opacity:1;marker:none;enable-background:accumulate" d="M 118.8011,58.528402 -28.812125,79.242985 5.8755118,-40.074102 l 96.0121782,20.991633 26.85965,50.05246 z" id="path4303" inkscape:connector-curvature="0" sodipodi:nodetypes="cccccc"></path>
          <path style="color:#000000;display:inline;overflow:visible;visibility:visible;opacity:1;fill:url(#linearGradient4309);fill-opacity:1;fill-rule:nonzero;stroke:none;stroke-width:4;stroke-linecap:round;stroke-linejoin:round;stroke-miterlimit:4;stroke-dasharray:none;stroke-dashoffset:0;stroke-opacity:1;marker:none;enable-background:accumulate" d="M 118.8011,58.528402 -28.812125,79.242985 -8.4409816,141.41578 108.00471,151.91561 Z" id="path4305" inkscape:connector-curvature="0" sodipodi:nodetypes="ccccc"></path>
        </g>
      </g>
    </g>
  </g>
  <g inkscape:groupmode="layer" id="layer3" inkscape:label="PLACE YOUR PICTOGRAM HERE" style="display:inline" sodipodi:insensitive="true">
    <path style="color:#000000;font-style:normal;font-variant:normal;font-weight:normal;font-stretch:normal;font-size:medium;line-height:normal;font-family:sans-serif;text-indent:0;text-align:start;text-decoration:none;text-decoration-line:none;text-decoration-style:solid;text-decoration-color:#000000;letter-spacing:normal;word-spacing:normal;text-transform:none;direction:ltr;block-progression:tb;writing-mode:lr-tb;baseline-shift:baseline;text-anchor:start;white-space:normal;clip-rule:nonzero;display:inline;overflow:visible;visibility:visible;opacity:1;isolation:auto;mix-blend-mode:normal;color-interpolation:sRGB;color-interpolation-filters:linearRGB;solid-color:#000000;solid-opacity:1;fill:#cd750a;fill-opacity:1;fill-rule:nonzero;stroke:none;stroke-width:1;stroke-linecap:round;stroke-linejoin:round;stroke-miterlimit:4;stroke-dasharray:none;stroke-dashoffset:0;stroke-opacity:1;marker:none;color-rendering:auto;image-rendering:auto;shape-rendering:auto;text-rendering:auto;enable-background:accumulate" d="m 36.226562,14.144531 c -0.219149,-0.0025 -0.451143,0.01395 -0.6875,0.05664 -0.42275,0.07755 -0.814493,0.272195 -1.144531,0.546875 -0.669189,0.400048 -1.23772,0.903656 -1.625,1.466797 -0.0026,0.0035 -0.0049,0.0058 -0.0078,0.0098 -0.0047,0.0064 -0.0093,0.01291 -0.01367,0.01953 L 22.054702,32.27347 22.041032,32.293 c -0.04325,0.06502 -0.07068,0.13927 -0.08008,0.216797 -0.07662,0.13236 -0.149605,0.263277 -0.208985,0.40039 l -5.125,0 c -0.911117,0 -1.660156,0.74904 -1.660156,1.660156 0,0.911119 0.748027,1.66211 1.660156,1.66211 l 5.123047,0 c 0.202886,0.407522 0.426512,0.803522 0.605469,1.041016 l 0.0039,0.0059 0.01367,0.01758 5.916015,7.673828 -20.8691401,0 c -0.9121299,0 -1.6601563,0.750994 -1.6601563,1.662109 0,0.911119 0.7480264,1.66211 1.6601563,1.66211 l 23.4335941,0 2.310546,2.998047 -8.882812,0 c -0.91213,0 -1.660156,0.750992 -1.660156,1.662109 0,0.911118 0.748026,1.66211 1.660156,1.66211 l 11.447266,0 1.578125,2.044921 c 0.744569,1.043188 1.923229,1.747053 2.957031,2.064453 l 10.40039,3.19336 c 0.01234,0.004 0.02503,0.008 0.03711,0.01172 l 0.0098,0.002 2.863281,0.818359 c 0.42996,0.123073 0.910095,0.231402 1.492187,0.222656 0.610744,-0.0092 1.412308,-0.183883 2.083985,-0.753906 0.131062,-0.111227 0.108315,-0.257271 0.21289,-0.380859 l -1.435547,8.208984 c -0.173416,6.81e-4 -0.347088,-0.0349 -0.517578,0.002 l -0.002,0 -2.613281,0.576172 0.615234,-4.960937 0.002,-0.01563 c 0.0014,-0.01528 0.0028,-0.03158 0.0039,-0.04687 l 0,-0.0059 c 0.07183,-0.737746 -0.08498,-1.803264 -0.859375,-2.58789 -0.736841,-0.746571 -1.598019,-0.902214 -2.128907,-0.958985 l -0.002,0 c -0.04115,-0.0042 -0.08178,-0.0075 -0.123047,-0.0098 l -2.765625,-0.15625 c -1.102527,-0.06147 -2.089465,0.457041 -2.675781,1.091796 -0.540551,0.585209 -0.800228,1.215413 -0.923828,1.81836 l 0,0.0039 -0.002,0.002 -1.679688,7.810547 0,0.002 c -0.135826,0.63612 -0.194796,1.151361 -0.125,1.828125 0.03659,0.354769 0.101157,0.681059 0.179688,1 0.266734,1.083323 0.580191,1.797435 1.074219,2.347656 l 0.002,0 c 0.02854,0.03172 0.05781,0.06359 0.08789,0.09375 l 2.445313,2.462891 0.002,0.002 0.01172,0.01172 c 0.06558,0.0655 0.14808,0.111481 0.238281,0.132813 0.407186,0.388583 0.851223,0.781729 1.40625,0.988281 0.651242,0.242356 1.209655,0.283782 1.669922,0.320312 0.07121,0.0055 0.14267,0.0083 0.212891,0.0078 l 5.453124,-0.03516 1.90625,0.0332 0.0039,0 5.195312,0.04687 c 0.988152,0.01311 2.198514,-0.05648 3.306641,-0.832032 1.112478,-0.778591 1.645552,-1.938378 2.009766,-3.08789 l 3.121093,-9.84961 7.314453,2.242188 c 0.02486,0.0079 0.05021,0.01464 0.07422,0.02148 l 0.0059,0.002 c 0.676136,0.182432 1.345209,0.28831 2.087891,0.199219 0.772631,-0.09269 1.959601,-0.509742 2.513672,-1.755859 0.556151,-1.250794 0.06223,-2.426941 -0.404297,-3.066407 -0.359251,-0.492422 -0.813461,-0.80783 -1.27539,-1.123046 -0.03414,-0.06108 -0.08072,-0.114305 -0.136719,-0.15625 l -0.01563,-0.0098 -6.78125,-4.949219 -0.529297,-0.40625 0.691406,-2.179687 0.002,-0.0059 c 0.0045,-0.01501 0.0096,-0.03007 0.01367,-0.04492 l 0.002,-0.0098 0.806641,-2.753906 0.0059,-0.01758 0.002,-0.0098 c 0.296455,-1.052506 0.243938,-1.967714 0.04687,-2.910156 -0.0086,-0.04107 -0.01839,-0.08345 -0.0293,-0.125 l -4.384765,-16.677735 -0.0039,-0.0098 -0.002,-0.0078 0,-0.002 C 70.113835,33.04525 69.092832,31.87663 67.873047,31.226562 l -0.0039,-0.002 c -0.03487,-0.01812 -0.06966,-0.03623 -0.105469,-0.05273 l -0.0039,-0.002 -13.324219,-6.275391 -0.002,0 -0.976563,-0.453125 c -0.161127,-0.664992 -0.365032,-1.35995 -0.876953,-1.96875 -0.675059,-0.802811 -1.438335,-1.175817 -2.15039,-1.542968 L 39.097656,15.089844 c -0.684217,-0.3795 -1.351833,-0.739632 -2.259765,-0.890625 -0.186774,-0.03106 -0.391997,-0.05209 -0.611329,-0.05469 z" id="path4234" inkscape:connector-curvature="0" sodipodi:nodetypes="ccccccccccssscccccsssccsssccccccccscccccccccsccccscccccsscccccccsccccccscccccssscccccccccccccccccccccccccsccsc"></path>
    <path style="color:#000000;display:inline;overflow:visible;visibility:visible;opacity:1;fill:#fef9ee;fill-opacity:1;fill-rule:nonzero;stroke:none;stroke-width:0;stroke-linecap:butt;stroke-linejoin:round;stroke-miterlimit:4;stroke-dasharray:none;stroke-dashoffset:0;stroke-opacity:1;marker:none;enable-background:accumulate" d="m 35.984375,16.662109 c -0.415424,0.07509 -0.756687,0.38775 -1.15625,0.96875 l -10.220703,15.322266 11.753906,0 a 1.60016,1.60016 0 1 1 0,3.199219 l -11.714844,0 6.820313,8.84375 22.417969,0 -2.681641,-19.453125 c -0.233376,-1.41497 -0.555797,-1.686307 -1.917969,-2.388672 L 37.886719,17.277344 c -0.609652,-0.338142 -1.07428,-0.54735 -1.458985,-0.611328 -0.160295,-0.02666 -0.304885,-0.02893 -0.443359,-0.0039 z m 17.386719,10.494141 2.460937,17.839844 4,0 a 1.600586,1.600586 0 0 1 0,3.201172 l -3.558593,0 0.552734,4.005859 3.121094,2.386719 c 0.666703,0.514503 0.980658,1.340145 0.810546,2.347656 l -3.910156,22.369141 5.195313,0.04687 c 1.640893,0.02268 2.320803,-0.313742 2.910156,-2.173828 l 6.666016,-21.03125 0.808593,-2.765626 c 0.124069,-0.440483 0.125434,-1.141482 0.0039,-1.722656 L 68.048828,34.982422 C 67.867882,34.312546 67.499831,33.86131 66.697266,33.433594 L 53.371094,27.15625 Z m 10.699218,7.841797 c 0.128624,0.0077 0.25743,0.02981 0.386719,0.06445 1.034298,0.277139 1.644331,1.340689 1.367188,2.375 -0.277144,1.034312 -1.336795,1.648233 -2.371094,1.371094 -1.034311,-0.277144 -1.648234,-1.340701 -1.371094,-2.375 0.242501,-0.905025 1.087916,-1.489484 1.988281,-1.435547 z m -30.134765,13.199219 2.408203,3.125 7.689453,0 a 1.60016,1.60016 0 1 1 0,3.199218 l -5.220703,0 0.529297,0.6875 c 0.480379,0.67304 0.861481,0.88354 1.654297,1.126954 l 10.40039,3.193359 2.865235,0.818359 c 1.196842,0.342583 1.687269,0.03288 1.515625,-1.388672 l -0.175782,-1.498046 -1.277343,-9.263672 -20.388672,0 z m 38.427734,13.30664 -1.255859,4.164063 7.396484,2.267578 c 1.901041,0.512934 2.320645,-0.445269 0.658203,-1.46875 l -6.798828,-4.962891 z m -24.964843,2.876953 c -0.598507,-0.03337 -0.929716,0.5058 -1.013672,0.917969 l -1.685547,7.837891 5.394531,-1.056641 0.833984,-6.722656 c 0.05395,-0.545102 -0.202258,-0.760069 -0.765625,-0.820313 l -2.763671,-0.15625 z m 8.546874,8.111329 -10.580078,2.330078 c -0.740692,0.205031 -0.682232,0.669734 -0.11914,1.296875 l 2.46289,2.480468 c 0.494767,0.554846 0.902019,0.642768 1.736328,0.708985 l 5.457032,-0.03516 1.042968,-6.78125 z" id="path4320" inkscape:connector-curvature="0"></path>
  </g>
  <g inkscape:groupmode="layer" id="layer2" inkscape:label="BADGE" style="display:none" sodipodi:insensitive="true">
    <g style="display:inline" transform="translate(-340.00001,-581)" id="g4394" clip-path="none">
      <g id="g855">
        <g inkscape:groupmode="maskhelper" id="g870" clip-path="url(#clipPath873)" style="opacity:0.6;filter:url(#filter891)">
          <path transform="matrix(1.4999992,0,0,1.4999992,-29.999795,-237.54282)" d="m 264,552.36218 a 12,12 0 0 1 -12,12 12,12 0 0 1 -12,-12 12,12 0 0 1 12,-12 12,12 0 0 1 12,12 z" sodipodi:ry="12" sodipodi:rx="12" sodipodi:cy="552.36218" sodipodi:cx="252" id="path844" style="color:#000000;fill:#000000;fill-opacity:1;fill-rule:nonzero;stroke:none;stroke-width:4;marker:none;visibility:visible;display:inline;overflow:visible;enable-background:accumulate" sodipodi:type="arc"></path>
        </g>
        <g id="g862">
          <path sodipodi:type="arc" style="color:#000000;fill:#f5f5f5;fill-opacity:1;fill-rule:nonzero;stroke:none;stroke-width:4;marker:none;visibility:visible;display:inline;overflow:visible;enable-background:accumulate" id="path4398" sodipodi:cx="252" sodipodi:cy="552.36218" sodipodi:rx="12" sodipodi:ry="12" d="m 264,552.36218 a 12,12 0 0 1 -12,12 12,12 0 0 1 -12,-12 12,12 0 0 1 12,-12 12,12 0 0 1 12,12 z" transform="matrix(1.4999992,0,0,1.4999992,-29.999795,-238.54282)"></path>
          <path transform="matrix(1.25,0,0,1.25,33,-100.45273)" d="m 264,552.36218 a 12,12 0 0 1 -12,12 12,12 0 0 1 -12,-12 12,12 0 0 1 12,-12 12,12 0 0 1 12,12 z" sodipodi:ry="12" sodipodi:rx="12" sodipodi:cy="552.36218" sodipodi:cx="252" id="path4400" style="color:#000000;fill:#dd4814;fill-opacity:1;fill-rule:nonzero;stroke:none;stroke-width:4;marker:none;visibility:visible;display:inline;overflow:visible;enable-background:accumulate" sodipodi:type="arc"></path>
          <path sodipodi:type="star" style="color:#000000;fill:#f5f5f5;fill-opacity:1;fill-rule:nonzero;stroke:none;stroke-width:3;marker:none;visibility:visible;display:inline;overflow:visible;enable-background:accumulate" id="path4459" sodipodi:sides="5" sodipodi:cx="666.19574" sodipodi:cy="589.50385" sodipodi:r1="7.2431178" sodipodi:r2="4.3458705" sodipodi:arg1="1.0471976" sodipodi:arg2="1.6755161" inkscape:flatsided="false" inkscape:rounded="0.1" inkscape:randomized="0" d="m 669.8173,595.77657 c -0.39132,0.22593 -3.62645,-1.90343 -4.07583,-1.95066 -0.44938,-0.0472 -4.05653,1.36297 -4.39232,1.06062 -0.3358,-0.30235 0.68963,-4.03715 0.59569,-4.47913 -0.0939,-0.44198 -2.5498,-3.43681 -2.36602,-3.8496 0.18379,-0.41279 4.05267,-0.59166 4.44398,-0.81759 0.39132,-0.22593 2.48067,-3.48704 2.93005,-3.4398 0.44938,0.0472 1.81505,3.67147 2.15084,3.97382 0.3358,0.30236 4.08294,1.2817 4.17689,1.72369 0.0939,0.44198 -2.9309,2.86076 -3.11469,3.27355 -0.18379,0.41279 0.0427,4.27917 -0.34859,4.5051 z" transform="matrix(1.511423,-0.16366377,0.16366377,1.511423,-755.37346,-191.93651)"></path>
        </g>
      </g>
    </g>
  </g>
</svg>
