<?xml version="1.0" encoding="UTF-8" standalone="no"?>
<!-- Created with Inkscape (http://www.inkscape.org/) -->

<svg xmlns:inkscape="http://www.inkscape.org/namespaces/inkscape" xmlns:sodipodi="http://sodipodi.sourceforge.net/DTD/sodipodi-0.dtd" xmlns:xlink="http://www.w3.org/1999/xlink" xmlns="http://www.w3.org/2000/svg" xmlns:svg="http://www.w3.org/2000/svg" xmlns:rdf="http://www.w3.org/1999/02/22-rdf-syntax-ns#" xmlns:cc="http://creativecommons.org/ns#" xmlns:dc="http://purl.org/dc/elements/1.1/" width="96" height="96" id="svg6517" version="1.1" inkscape:version="0.48+devel r12591" sodipodi:docname="openstack-glance.svg" viewBox="0 0 96 96">
  <sodipodi:namedview id="base" pagecolor="#ffffff" bordercolor="#666666" borderopacity="1.0" inkscape:pageopacity="0.0" inkscape:pageshadow="2" inkscape:zoom="3.2596289" inkscape:cx="-9.9432517" inkscape:cy="24.903541" inkscape:document-units="px" inkscape:current-layer="layer1" showgrid="false" fit-margin-top="0" fit-margin-left="0" fit-margin-right="0" fit-margin-bottom="0" inkscape:window-width="1920" inkscape:window-height="1029" inkscape:window-x="0" inkscape:window-y="24" inkscape:window-maximized="1" showborder="true" showguides="false" inkscape:guide-bbox="true" inkscape:showpageshadow="false" inkscape:snap-global="true" inkscape:snap-bbox="false" inkscape:bbox-paths="true" inkscape:bbox-nodes="true" inkscape:snap-bbox-edge-midpoints="true" inkscape:snap-bbox-midpoints="true" inkscape:object-paths="true" inkscape:snap-intersection-paths="true" inkscape:object-nodes="true" inkscape:snap-smooth-nodes="true" inkscape:snap-midpoints="true" inkscape:snap-object-midpoints="true" inkscape:snap-center="true" inkscape:snap-grids="false" inkscape:snap-nodes="true" inkscape:snap-others="false">
    <inkscape:grid id="grid821" type="xygrid"></inkscape:grid>
    <sodipodi:guide id="guide823" position="18.34962,45.78585" orientation="1,0"></sodipodi:guide>
    <sodipodi:guide id="guide827" position="78.02001,46.32673" orientation="1,0"></sodipodi:guide>
    <sodipodi:guide inkscape:label="" id="guide4184" position="65.586619,19.307" orientation="-0.087155743,0.9961947"></sodipodi:guide>
    <sodipodi:guide inkscape:label="" id="guide4188" position="62.756032,71.583147" orientation="-0.087155743,0.9961947"></sodipodi:guide>
    <sodipodi:guide inkscape:label="" id="guide4190" position="47.812194,78.049658" orientation="-0.087155743,0.9961947"></sodipodi:guide>
    <sodipodi:guide id="guide4194" position="25.60516,42.21665" orientation="1,0"></sodipodi:guide>
    <sodipodi:guide inkscape:label="" id="guide4202" position="25.60516,42.070975" orientation="-0.087155743,0.9961947"></sodipodi:guide>
    <sodipodi:guide inkscape:label="" id="guide4204" position="25.60516,42.070975" orientation="-0.70710678,-0.70710678"></sodipodi:guide>
    <sodipodi:guide inkscape:label="" id="guide4242" position="56.634087,49.235288" orientation="-0.70710678,-0.70710678"></sodipodi:guide>
    <sodipodi:guide inkscape:label="" id="guide4252" position="73.5625,75.210937" orientation="-0.70710678,-0.70710678"></sodipodi:guide>
    <sodipodi:guide inkscape:label="" inkscape:color="rgb(140,140,240)" id="guide4254" position="46.715268,39.789733" orientation="-0.70710678,-0.70710678"></sodipodi:guide>
    <sodipodi:guide inkscape:label="" id="guide4288" position="21.871042,21.577512" orientation="-0.70710678,-0.70710678"></sodipodi:guide>
  </sodipodi:namedview>
  <defs id="defs6519">
    <filter id="filter1121" inkscape:label="Inner Shadow" style="color-interpolation-filters:sRGB;">
      <feFlood id="feFlood1123" result="flood" flood-color="rgb(0,0,0)" flood-opacity="0.59999999999999998"></feFlood>
      <feComposite id="feComposite1125" result="composite1" operator="out" in2="SourceGraphic" in="flood"></feComposite>
      <feGaussianBlur id="feGaussianBlur1127" result="blur" stdDeviation="1" in="composite1"></feGaussianBlur>
      <feOffset id="feOffset1129" result="offset" dy="2" dx="0"></feOffset>
      <feComposite id="feComposite1131" result="composite2" operator="atop" in2="SourceGraphic" in="offset"></feComposite>
    </filter>
    <filter id="filter950" inkscape:label="Drop Shadow" style="color-interpolation-filters:sRGB;">
      <feFlood id="feFlood952" result="flood" flood-color="rgb(0,0,0)" flood-opacity="0.25"></feFlood>
      <feComposite id="feComposite954" result="composite1" operator="in" in2="SourceGraphic" in="flood"></feComposite>
      <feGaussianBlur id="feGaussianBlur956" result="blur" stdDeviation="1" in="composite1"></feGaussianBlur>
      <feOffset id="feOffset958" result="offset" dy="1" dx="0"></feOffset>
      <feComposite id="feComposite960" result="composite2" operator="over" in2="offset" in="SourceGraphic"></feComposite>
    </filter>
    <filter inkscape:label="Badge Shadow" id="filter891" inkscape:collect="always">
      <feGaussianBlur id="feGaussianBlur893" stdDeviation="0.71999962" inkscape:collect="always"></feGaussianBlur>
    </filter>
    <filter inkscape:collect="always" id="filter3831">
      <feGaussianBlur inkscape:collect="always" stdDeviation="0.86309522" id="feGaussianBlur3833"></feGaussianBlur>
    </filter>
    <filter inkscape:collect="always" id="filter3868" x="-0.17186206" width="1.3437241" y="-0.1643077" height="1.3286154">
      <feGaussianBlur inkscape:collect="always" stdDeviation="0.62628186" id="feGaussianBlur3870"></feGaussianBlur>
    </filter>
    <linearGradient id="linearGradient4328" inkscape:collect="always">
      <stop id="stop4330" offset="0" style="stop-color:#871f1c;stop-opacity:1;"></stop>
      <stop id="stop4332" offset="1" style="stop-color:#651715;stop-opacity:1"></stop>
    </linearGradient>
    <linearGradient id="linearGradient902" inkscape:collect="always">
      <stop id="stop904" offset="0" style="stop-color:#cccccc;stop-opacity:1"></stop>
      <stop id="stop906" offset="1" style="stop-color:#e6e6e6;stop-opacity:1"></stop>
    </linearGradient>
    <linearGradient id="Background">
      <stop style="stop-color:#22779e;stop-opacity:1" offset="0" id="stop4178"></stop>
      <stop style="stop-color:#2991c0;stop-opacity:1" offset="1" id="stop4180"></stop>
    </linearGradient>
    <clipPath id="clipPath873" clipPathUnits="userSpaceOnUse">
      <g style="fill:#ff00ff;fill-opacity:1;stroke:none;display:inline" inkscape:label="Layer 1" id="g875" transform="matrix(0,-0.66666667,0.66604479,0,-258.25992,677.00001)">
        <path sodipodi:nodetypes="sssssssss" inkscape:connector-curvature="0" id="path877" d="m 46.702703,898.22775 50.594594,0 C 138.16216,898.22775 144,904.06497 144,944.92583 l 0,50.73846 c 0,40.86071 -5.83784,46.69791 -46.702703,46.69791 l -50.594594,0 C 5.8378378,1042.3622 0,1036.525 0,995.66429 L 0,944.92583 C 0,904.06497 5.8378378,898.22775 46.702703,898.22775 Z" style="fill:#ff00ff;fill-opacity:1;stroke:none;display:inline"></path>
      </g>
    </clipPath>
    <style type="text/css" id="style867">
    .fil0 {fill:#1F1A17}
   </style>
    <linearGradient gradientUnits="userSpaceOnUse" y2="635.29077" x2="-220" y1="731.29077" x1="-220" id="linearGradient908" xlink:href="#linearGradient902" inkscape:collect="always"></linearGradient>
    <clipPath id="clipPath16">
      <path d="m -9,-9 614,0 0,231 -614,0 0,-231 z" id="path18"></path>
    </clipPath>
    <clipPath id="clipPath116">
      <path d="m 91.7368,146.3253 -9.7039,-1.577 -8.8548,-3.8814 -7.5206,-4.7308 -7.1566,-8.7335 -4.0431,-4.282 -3.9093,-1.4409 -1.034,2.5271 1.8079,2.6096 0.4062,3.6802 1.211,-0.0488 1.3232,-1.2069 -0.3569,3.7488 -1.4667,0.9839 0.0445,1.4286 -3.4744,-1.9655 -3.1462,-3.712 -0.6559,-3.3176 1.3453,-2.6567 1.2549,-4.5133 2.5521,-1.2084 2.6847,0.1318 2.5455,1.4791 -1.698,-8.6122 1.698,-9.5825 -1.8692,-4.4246 -6.1223,-6.5965 1.0885,-3.941 2.9002,-4.5669 5.4688,-3.8486 2.9007,-0.3969 3.225,-0.1094 -2.012,-8.2601 7.3993,-3.0326 9.2188,-1.2129 3.1535,2.0619 0.2427,5.5797 3.5178,5.8224 0.2426,4.6094 8.4909,-0.6066 7.8843,0.7279 -7.8843,-4.7307 1.3343,-5.701 4.9731,-7.763 4.8521,-2.0622 3.8814,1.5769 1.577,3.1538 8.1269,6.1861 1.5769,-1.3343 12.7363,-0.485 2.5473,2.0619 0.2426,3.6391 -0.849,1.5767 -0.6066,9.8251 -4.2454,8.4909 0.7276,3.7605 2.5475,-1.3343 7.1566,-6.6716 3.5175,-0.2424 3.8815,1.5769 3.8818,2.9109 1.9406,6.3077 11.4021,-0.7277 6.914,2.6686 5.5797,5.2157 4.0028,7.5206 0.9706,8.8546 -0.8493,10.3105 -2.1832,9.2185 -2.1836,2.9112 -3.0322,0.9706 -5.3373,-5.8224 -4.8518,-1.6982 -4.2455,7.0353 -4.2454,3.8815 -2.3049,1.4556 -9.2185,7.6419 -7.3993,4.0028 -7.3993,0.6066 -8.6119,-1.4556 -7.5206,-2.7899 -5.2158,-4.2454 -4.1241,-4.9734 -4.2454,-1.2129" id="path118"></path>
    </clipPath>
    <clipPath id="clipPath128">
      <path d="m 91.7368,146.3253 -9.7039,-1.577 -8.8548,-3.8814 -7.5206,-4.7308 -7.1566,-8.7335 -4.0431,-4.282 -3.9093,-1.4409 -1.034,2.5271 1.8079,2.6096 0.4062,3.6802 1.211,-0.0488 1.3232,-1.2069 -0.3569,3.7488 -1.4667,0.9839 0.0445,1.4286 -3.4744,-1.9655 -3.1462,-3.712 -0.6559,-3.3176 1.3453,-2.6567 1.2549,-4.5133 2.5521,-1.2084 2.6847,0.1318 2.5455,1.4791 -1.698,-8.6122 1.698,-9.5825 -1.8692,-4.4246 -6.1223,-6.5965 1.0885,-3.941 2.9002,-4.5669 5.4688,-3.8486 2.9007,-0.3969 3.225,-0.1094 -2.012,-8.2601 7.3993,-3.0326 9.2188,-1.2129 3.1535,2.0619 0.2427,5.5797 3.5178,5.8224 0.2426,4.6094 8.4909,-0.6066 7.8843,0.7279 -7.8843,-4.7307 1.3343,-5.701 4.9731,-7.763 4.8521,-2.0622 3.8814,1.5769 1.577,3.1538 8.1269,6.1861 1.5769,-1.3343 12.7363,-0.485 2.5473,2.0619 0.2426,3.6391 -0.849,1.5767 -0.6066,9.8251 -4.2454,8.4909 0.7276,3.7605 2.5475,-1.3343 7.1566,-6.6716 3.5175,-0.2424 3.8815,1.5769 3.8818,2.9109 1.9406,6.3077 11.4021,-0.7277 6.914,2.6686 5.5797,5.2157 4.0028,7.5206 0.9706,8.8546 -0.8493,10.3105 -2.1832,9.2185 -2.1836,2.9112 -3.0322,0.9706 -5.3373,-5.8224 -4.8518,-1.6982 -4.2455,7.0353 -4.2454,3.8815 -2.3049,1.4556 -9.2185,7.6419 -7.3993,4.0028 -7.3993,0.6066 -8.6119,-1.4556 -7.5206,-2.7899 -5.2158,-4.2454 -4.1241,-4.9734 -4.2454,-1.2129" id="path130"></path>
    </clipPath>
    <linearGradient inkscape:collect="always" id="linearGradient3850">
      <stop style="stop-color:#000000;stop-opacity:1;" offset="0" id="stop3852"></stop>
      <stop style="stop-color:#000000;stop-opacity:0;" offset="1" id="stop3854"></stop>
    </linearGradient>
    <clipPath id="clipPath3095" clipPathUnits="userSpaceOnUse">
      <path inkscape:connector-curvature="0" id="path3097" d="m 976.648,389.551 -842.402,0 0,839.999 842.402,0 0,-839.999"></path>
    </clipPath>
    <clipPath id="clipPath3195" clipPathUnits="userSpaceOnUse">
      <path inkscape:connector-curvature="0" id="path3197" d="m 611.836,756.738 -106.34,105.207 c -8.473,8.289 -13.617,20.102 -13.598,33.379 L 598.301,790.207 c -0.031,-13.418 5.094,-25.031 13.535,-33.469"></path>
    </clipPath>
    <clipPath id="clipPath3235" clipPathUnits="userSpaceOnUse">
      <path inkscape:connector-curvature="0" id="path3237" d="m 1095.64,1501.81 c 35.46,-35.07 70.89,-70.11 106.35,-105.17 4.4,-4.38 7.11,-10.53 7.11,-17.55 l -106.37,105.21 c 0,7 -2.71,13.11 -7.09,17.51"></path>
    </clipPath>
    <linearGradient inkscape:collect="always" id="linearGradient4389">
      <stop style="stop-color:#871f1c;stop-opacity:1" offset="0" id="stop4391"></stop>
      <stop style="stop-color:#c42e24;stop-opacity:1" offset="1" id="stop4393"></stop>
    </linearGradient>
    <clipPath clipPathUnits="userSpaceOnUse" id="clipPath4591">
      <path id="path4593" style="fill:#ff00ff;fill-opacity:1;fill-rule:nonzero;stroke:none" d="m 1106.6009,730.43734 -0.036,21.648 c -0.01,3.50825 -2.8675,6.61375 -6.4037,6.92525 l -83.6503,7.33162 c -3.5205,0.30763 -6.3812,-2.29987 -6.3671,-5.8145 l 0.036,-21.6475 20.1171,-1.76662 -0.011,4.63775 c 0,1.83937 1.4844,3.19925 3.3262,3.0395 l 49.5274,-4.33975 c 1.8425,-0.166 3.3425,-1.78125 3.3538,-3.626 l 0.01,-4.63025 20.1,-1.7575" inkscape:connector-curvature="0"></path>
    </clipPath>
    <radialGradient inkscape:collect="always" xlink:href="#linearGradient3850" id="radialGradient3856" cx="-26.508606" cy="93.399292" fx="-26.508606" fy="93.399292" r="20.40658" gradientTransform="matrix(-1.4333926,-2.2742838,1.1731823,-0.73941125,-174.08025,98.374394)" gradientUnits="userSpaceOnUse"></radialGradient>
    <filter inkscape:collect="always" id="filter3885">
      <feGaussianBlur inkscape:collect="always" stdDeviation="5.7442192" id="feGaussianBlur3887"></feGaussianBlur>
    </filter>
    <linearGradient inkscape:collect="always" xlink:href="#linearGradient3850" id="linearGradient3895" x1="348.20132" y1="593.11615" x2="-51.879555" y2="993.19702" gradientUnits="userSpaceOnUse" gradientTransform="translate(-318.48033,212.32022)"></linearGradient>
    <radialGradient inkscape:collect="always" xlink:href="#linearGradient3850" id="radialGradient3902" gradientUnits="userSpaceOnUse" gradientTransform="matrix(-1.4333926,-2.2742838,1.1731823,-0.73941125,-174.08025,98.374394)" cx="-26.508606" cy="93.399292" fx="-26.508606" fy="93.399292" r="20.40658"></radialGradient>
    <linearGradient inkscape:collect="always" xlink:href="#linearGradient3850" id="linearGradient3904" gradientUnits="userSpaceOnUse" gradientTransform="translate(-318.48033,212.32022)" x1="348.20132" y1="593.11615" x2="-51.879555" y2="993.19702"></linearGradient>
    <linearGradient gradientUnits="userSpaceOnUse" y2="23.383789" x2="25.217773" y1="27.095703" x1="21.505859" id="linearGradient4318" xlink:href="#linearGradient4389" inkscape:collect="always"></linearGradient>
    <linearGradient gradientUnits="userSpaceOnUse" y2="20.884073" x2="71.960243" y1="20.041777" x1="72.802544" id="linearGradient4326" xlink:href="#linearGradient4389" inkscape:collect="always"></linearGradient>
    <linearGradient gradientUnits="userSpaceOnUse" y2="74.246689" x2="21.69179" y1="73.643555" x1="22.294922" id="linearGradient4334" xlink:href="#linearGradient4328" inkscape:collect="always"></linearGradient>
    <linearGradient gradientUnits="userSpaceOnUse" y2="24.881023" x2="57.450542" y1="77.404816" x1="57.450542" id="linearGradient4319" xlink:href="#linearGradient4552" inkscape:collect="always"></linearGradient>
    <linearGradient id="linearGradient4552" inkscape:collect="always">
      <stop id="stop4554" offset="0" style="stop-color:#d93023;stop-opacity:1"></stop>
      <stop id="stop4556" offset="1" style="stop-color:#e63f46;stop-opacity:1"></stop>
    </linearGradient>
    <linearGradient inkscape:collect="always" xlink:href="#linearGradient4389" id="linearGradient4489" x1="-220.1972" y1="696.80957" x2="-187.41859" y2="677.88483" gradientUnits="userSpaceOnUse"></linearGradient>
    <linearGradient inkscape:collect="always" xlink:href="#linearGradient4389" id="linearGradient4502" x1="-223.44336" y1="686.36108" x2="-214.06027" y2="676.97797" gradientUnits="userSpaceOnUse"></linearGradient>
  </defs>
  <metadata id="metadata6522">
    <rdf:RDF>
      <cc:Work rdf:about="">
        <dc:format>image/svg+xml</dc:format>
        <dc:type rdf:resource="http://purl.org/dc/dcmitype/StillImage"></dc:type>
        <dc:title></dc:title>
      </cc:Work>
    </rdf:RDF>
  </metadata>
  <g style="display:inline" transform="translate(268,-635.29076)" id="layer1" inkscape:groupmode="layer" inkscape:label="BACKGROUND">
    <path sodipodi:nodetypes="sssssssss" inkscape:connector-curvature="0" id="path6455" d="m -268,700.15563 0,-33.72973 c 0,-27.24324 3.88785,-31.13513 31.10302,-31.13513 l 33.79408,0 c 27.21507,0 31.1029,3.89189 31.1029,31.13513 l 0,33.72973 c 0,27.24325 -3.88783,31.13514 -31.1029,31.13514 l -33.79408,0 C -264.11215,731.29077 -268,727.39888 -268,700.15563 Z" style="fill:url(#linearGradient908);fill-opacity:1;stroke:none;display:inline;filter:url(#filter1121)"></path>
    <g id="g4336">
      <g transform="matrix(0.06790711,0,0,-0.06790711,-239.0411,765.68623)" id="g3897" xml:space="default">
        <path inkscape:connector-curvature="0" style="opacity:0.7;color:#000000;fill:url(#radialGradient3902);fill-opacity:1;stroke:none;stroke-width:2;marker:none;visibility:visible;display:inline;overflow:visible;filter:url(#filter3831);enable-background:accumulate" d="m -48.09375,67.8125 c -0.873996,-0.0028 -2.089735,0.01993 -3.40625,0.09375 -2.633031,0.147647 -5.700107,0.471759 -7.78125,1.53125 a 1.0001,1.0001 0 0 0 -0.25,1.59375 L -38.8125,92.375 a 1.0001,1.0001 0 0 0 0.84375,0.3125 L -24,90.5625 a 1.0001,1.0001 0 0 0 0.53125,-1.71875 L -46.0625,68.125 a 1.0001,1.0001 0 0 0 -0.625,-0.28125 c 0,0 -0.532254,-0.02842 -1.40625,-0.03125 z" transform="matrix(10.616011,0,0,-10.616011,357.98166,1725.8152)" id="path3821" xml:space="default"></path>
        <path style="opacity:0.6;color:#000000;fill:none;stroke:#000000;stroke-width:2.77429962;stroke-linecap:round;marker:none;visibility:visible;display:inline;overflow:visible;filter:url(#filter3868);enable-background:accumulate" d="m -15.782705,81.725197 8.7458304,9.147937" id="path3858" inkscape:connector-curvature="0" transform="matrix(10.616011,0,0,-10.616011,39.50133,1725.8152)" xml:space="default"></path>
        <path style="font-style:normal;font-variant:normal;font-weight:normal;font-stretch:normal;text-indent:0;text-align:start;text-decoration:none;line-height:normal;letter-spacing:normal;word-spacing:normal;text-transform:none;direction:ltr;block-progression:tb;writing-mode:lr-tb;text-anchor:start;baseline-shift:baseline;opacity:0.3;color:#000000;fill:url(#linearGradient3904);fill-opacity:1;stroke:none;stroke-width:2;marker:none;visibility:visible;display:inline;overflow:visible;filter:url(#filter3885);enable-background:accumulate;font-family:Sans;-inkscape-font-specification:Sans" d="m -95.18931,981.03569 a 10.617073,10.617073 0 0 1 -0.995251,-0.3318 l -42.795789,-5.308 a 10.617073,10.617073 0 0 1 -6.30326,-17.9145 L -4.2897203,812.5065 a 10.617073,10.617073 0 0 1 8.95726,-3.3175 l 49.0990503,7.63026 a 10.617073,10.617073 0 0 1 5.97151,17.91452 L -87.55905,978.04989 a 10.617073,10.617073 0 0 1 -7.63026,2.9858 z" id="path3874" inkscape:connector-curvature="0" xml:space="default"></path>
      </g>
      <path style="opacity:1;color:#000000;fill:#871f1c;fill-opacity:1;fill-rule:nonzero;stroke:none;stroke-width:0.1;marker:none;visibility:visible;display:inline;overflow:visible;enable-background:accumulate" d="M 20.697266 20.515625 C 19.336871 21.10204 18.348875 22.456253 18.345703 23.970703 L 18.353516 69.601562 C 18.349848 70.477025 18.685456 71.239319 19.222656 71.802734 L 19.212891 71.8125 L 19.357422 71.955078 C 19.360505 71.957909 19.364093 71.960073 19.367188 71.962891 L 26.660156 79.126953 L 33.488281 71.738281 L 67.28125 68.777344 C 67.744386 68.736546 68.184049 68.603285 68.587891 68.404297 L 52.511719 52.330078 C 50.19784 53.328957 47.557287 54.090708 44.556641 54.353516 C 37.367361 54.983177 32.163024 52.47579 28.917969 50.083984 L 28.917969 43.212891 C 28.917969 42.778376 28.776561 42.380042 28.542969 42.052734 C 30.505173 40.198349 33.223322 38.109898 36.785156 36.603516 L 20.697266 20.515625 z M 40.1875 40.005859 C 38.8509 41.325061 38.004169 43.137022 38.003906 45.078125 C 38.003416 48.704485 40.937751 51.387332 44.556641 51.070312 C 46.301531 50.917454 47.883959 50.092173 49.058594 48.875 L 40.1875 40.005859 z " transform="translate(-268,635.29076)" id="path4308"></path>
      <path style="opacity:1;color:#000000;fill:#c42e24;fill-opacity:1;fill-rule:nonzero;stroke:none;stroke-width:0.1;marker:none;visibility:visible;display:inline;overflow:visible;enable-background:accumulate" d="M 67.320312 16.253906 L 21.822266 20.212891 C 21.426436 20.248017 21.052174 20.362637 20.697266 20.515625 L 36.785156 36.603516 C 39.056352 35.642974 41.635298 34.910663 44.558594 34.654297 C 45.377844 34.582497 46.171423 34.549688 46.939453 34.554688 C 58.459873 34.626688 64.21875 42.78125 64.21875 42.78125 C 64.21875 42.78125 60.304391 48.966059 52.511719 52.330078 L 68.587891 68.404297 C 69.859183 67.777881 70.75673 66.462035 70.759766 65.015625 L 70.775391 31.386719 L 77.232422 24.398438 L 69.892578 17.179688 L 69.884766 17.189453 C 69.251763 16.542736 68.342666 16.171306 67.320312 16.253906 z M 45.228516 37.912109 C 45.008206 37.909009 44.784804 37.9177 44.558594 37.9375 C 42.876553 38.084976 41.348067 38.860399 40.1875 40.005859 L 49.058594 48.875 C 50.320237 47.567668 51.110909 45.807778 51.111328 43.929688 C 51.112088 40.529508 48.533056 37.958709 45.228516 37.912109 z " transform="translate(-268,635.29076)" id="path4233"></path>
      <rect xml:space="default" y="648.49109" x="-258.70667" height="69.20665" width="69.20665" id="rect3585-3" style="opacity:0.8;color:#000000;fill:none;stroke:none;stroke-width:4;marker:none;visibility:visible;display:inline;overflow:visible;enable-background:accumulate"></rect>
      <path style="font-style:normal;font-variant:normal;font-weight:normal;font-stretch:normal;text-indent:0;text-align:start;text-decoration:none;line-height:normal;letter-spacing:normal;word-spacing:normal;text-transform:none;direction:ltr;block-progression:tb;writing-mode:lr-tb;text-anchor:start;baseline-shift:baseline;opacity:1;color:#000000;color-interpolation:sRGB;color-interpolation-filters:sRGB;fill:url(#linearGradient4318);fill-opacity:1;fill-rule:nonzero;stroke:none;stroke-width:5.25;marker:none;visibility:visible;display:inline;overflow:visible;enable-background:accumulate;clip-rule:nonzero;color-rendering:auto;image-rendering:auto;shape-rendering:auto;text-rendering:auto;font-family:sans-serif;-inkscape-font-specification:sans-serif" d="M 22.029297 20.195312 L 21.822266 20.212891 C 19.919838 20.381715 18.370776 22.043134 18.349609 23.939453 L 24.662109 30.251953 L 25.605469 31.195312 L 25.605469 31.103516 C 25.609469 29.193966 27.168951 27.515473 29.082031 27.345703 L 29.171875 27.337891 L 28.373047 26.539062 L 22.029297 20.195312 z " transform="translate(-268,635.29076)" id="path4256"></path>
      <path style="font-style:normal;font-variant:normal;font-weight:normal;font-stretch:normal;text-indent:0;text-align:start;text-decoration:none;line-height:normal;letter-spacing:normal;word-spacing:normal;text-transform:none;direction:ltr;block-progression:tb;writing-mode:lr-tb;text-anchor:start;baseline-shift:baseline;opacity:0.53600003;color:#000000;color-interpolation:sRGB;color-interpolation-filters:sRGB;fill:url(#linearGradient4326);fill-opacity:1;fill-rule:nonzero;stroke:none;stroke-width:2.4;marker:none;visibility:visible;display:inline;overflow:visible;enable-background:accumulate;clip-rule:nonzero;color-rendering:auto;image-rendering:auto;shape-rendering:auto;text-rendering:auto;font-family:sans-serif;-inkscape-font-specification:sans-serif;stroke-miterlimit:4;stroke-dasharray:none" d="M 67.330078 16.253906 L 68.03125 16.955078 L 74.472656 23.396484 L 74.580078 23.386719 C 75.531927 23.309814 76.390588 23.620657 77.015625 24.185547 L 69.892578 17.179688 L 69.884766 17.189453 C 69.253843 16.544862 68.348328 16.174551 67.330078 16.253906 z M 77.054688 24.222656 C 77.115589 24.279686 77.164628 24.348282 77.220703 24.410156 L 77.232422 24.398438 L 77.054688 24.222656 z " transform="translate(-268,635.29076)" id="path4272"></path>
      <path style="font-style:normal;font-variant:normal;font-weight:normal;font-stretch:normal;text-indent:0;text-align:start;text-decoration:none;line-height:normal;letter-spacing:normal;word-spacing:normal;text-transform:none;direction:ltr;block-progression:tb;writing-mode:lr-tb;text-anchor:start;baseline-shift:baseline;opacity:1;color:#000000;color-interpolation:sRGB;color-interpolation-filters:sRGB;fill:url(#linearGradient4334);fill-opacity:1;fill-rule:nonzero;stroke:none;stroke-width:1.7;marker:none;visibility:visible;display:inline;overflow:visible;enable-background:accumulate;clip-rule:nonzero;color-rendering:auto;image-rendering:auto;shape-rendering:auto;text-rendering:auto;font-family:sans-serif;-inkscape-font-specification:sans-serif;stroke-miterlimit:4;stroke-dasharray:none" d="M 18.363281 69.712891 C 18.387957 70.540342 18.709001 71.264013 19.222656 71.802734 L 19.212891 71.8125 L 19.357422 71.955078 C 19.360505 71.957909 19.364093 71.960073 19.367188 71.962891 L 26.599609 79.068359 C 26.044831 78.550125 25.698241 77.821152 25.638672 76.988281 L 18.951172 70.298828 L 18.363281 69.712891 z M 26.636719 79.103516 L 26.660156 79.126953 L 26.664062 79.123047 C 26.655656 79.11562 26.645042 79.111033 26.636719 79.103516 z " transform="translate(-268,635.29076)" id="path4290"></path>
      <path style="color:#000000;fill:url(#linearGradient4502);fill-opacity:1;fill-rule:nonzero;stroke:none;stroke-width:2;marker:none;visibility:visible;display:inline;overflow:visible;enable-background:accumulate" d="m -222.77148,673.20287 c -0.22031,-0.003 -0.44372,0.006 -0.66993,0.0254 -1.68204,0.14748 -3.21052,0.9229 -4.37109,2.06836 -1.3366,1.3192 -2.18333,3.13116 -2.18359,5.07226 -2.4e-4,1.73279 0.67509,3.24468 1.76953,4.32227 l -0.006,0.006 6.9707,6.82812 9.89649,-9.46875 -7.20704,-7.08203 c -0.0187,-0.0191 -0.0377,-0.0378 -0.0566,-0.0566 l -0.15625,-0.15234 -0.006,0.006 c -1.04,-0.96073 -2.42769,-1.54646 -3.98046,-1.56836 z" id="path4494" inkscape:connector-curvature="0"></path>
      <path style="fill:url(#linearGradient4319);fill-opacity:1;fill-rule:nonzero;stroke:none;display:inline" d="M 74.580078 23.386719 L 29.082031 27.345703 C 27.168951 27.515473 25.609469 29.193966 25.605469 31.103516 L 25.613281 76.734375 C 25.605281 78.643715 27.159736 80.061651 29.072266 79.894531 L 74.541016 75.910156 C 76.462106 75.740926 78.015531 74.054318 78.019531 72.148438 L 78.041016 26.554688 C 78.044016 24.640387 76.496418 23.231889 74.580078 23.386719 z M 54.195312 41.6875 C 65.715733 41.7595 71.474609 49.914062 71.474609 49.914062 C 71.474609 49.914062 64.91871 60.338438 51.8125 61.486328 C 38.70831 62.634038 32.15625 53.359375 32.15625 53.359375 C 32.15625 53.359375 38.708503 42.936469 51.814453 41.787109 C 52.633703 41.715309 53.427282 41.6825 54.195312 41.6875 z M 52.484375 45.044922 C 52.264065 45.041822 52.040663 45.050512 51.814453 45.070312 C 48.195243 45.387632 45.260256 48.584377 45.259766 52.210938 C 45.259276 55.837297 48.19361 58.520145 51.8125 58.203125 C 55.43153 57.886085 58.366377 54.68916 58.367188 51.0625 C 58.367947 47.66232 55.788915 45.091522 52.484375 45.044922 z " transform="translate(-268,635.29076)" id="path4633-5"></path>
      <path style="color:#000000;fill:url(#linearGradient4489);fill-opacity:1;fill-rule:nonzero;stroke:none;stroke-width:0.1;marker:none;visibility:visible;display:inline;overflow:visible;enable-background:accumulate" d="m -204.4668,679.02709 c -0.89822,1.17857 -2.70453,3.28393 -5.47851,5.36133 0.19974,0.61145 0.31265,1.26953 0.3125,1.96484 -8.1e-4,3.62666 -2.93566,6.82358 -6.55469,7.14062 -2.90937,0.25487 -5.37327,-1.42998 -6.22852,-3.98437 -0.34301,0.0443 -0.67442,0.10385 -1.02734,0.13477 -4.77519,0.41822 -8.66998,-0.55261 -11.70508,-1.94922 -0.41415,0.54813 -0.69531,0.95507 -0.69531,0.95507 0,0 6.55206,9.27467 19.65625,8.12696 13.10621,-1.14789 19.66211,-11.57227 19.66211,-11.57227 0,0 -2.65226,-3.74114 -7.94141,-6.17773 z" id="path4475" inkscape:connector-curvature="0"></path>
      <path style="fill:#ffffff;fill-opacity:1;fill-rule:nonzero;stroke:none;display:inline;opacity:0.3" d="M 74.580078 23.386719 L 29.082031 27.345703 C 27.168951 27.515473 25.609469 29.193966 25.605469 31.103516 L 25.605469 31.302734 C 25.609469 29.393184 27.168951 27.714692 29.082031 27.544922 L 74.580078 23.585938 C 76.496418 23.431107 78.044016 24.839606 78.041016 26.753906 L 78.041016 26.554688 C 78.044016 24.640387 76.496418 23.231889 74.580078 23.386719 z M 52.484375 45.044922 C 52.264065 45.041822 52.040663 45.050513 51.814453 45.070312 C 48.195243 45.387633 45.260256 48.584377 45.259766 52.210938 C 45.259761 52.244751 45.265121 52.276899 45.265625 52.310547 C 45.319668 48.725589 48.228697 45.583918 51.814453 45.269531 C 52.040663 45.250131 52.264065 45.241141 52.484375 45.244141 C 55.755471 45.290269 58.312531 47.811178 58.363281 51.160156 C 58.363768 51.127393 58.36718 51.095335 58.367188 51.0625 C 58.367947 47.66232 55.788915 45.091522 52.484375 45.044922 z M 71.402344 50.019531 C 71.028404 50.597622 64.53361 60.372167 51.8125 61.486328 C 39.095145 62.600158 32.603929 53.967878 32.228516 53.453125 C 32.217202 53.470623 32.15625 53.558594 32.15625 53.558594 C 32.15625 53.558594 38.70831 62.833257 51.8125 61.685547 C 64.91871 60.537657 71.474609 50.113281 71.474609 50.113281 C 71.474609 50.113281 71.415283 50.037242 71.402344 50.019531 z " transform="translate(-268,635.29076)" id="path4517"></path>
    </g>
  </g>
  <g style="display:inline" inkscape:label="PLACE YOUR PICTOGRAM HERE" id="layer3" inkscape:groupmode="layer"></g>
  <g sodipodi:insensitive="true" style="display:none" inkscape:label="BADGE" id="layer2" inkscape:groupmode="layer">
    <g clip-path="none" id="g4394" transform="translate(-340.00001,-581)" style="display:inline">
      <g id="g855">
        <g style="opacity:0.6;filter:url(#filter891)" clip-path="url(#clipPath873)" id="g870" inkscape:groupmode="maskhelper">
          <path sodipodi:type="arc" style="color:#000000;fill:#000000;fill-opacity:1;fill-rule:nonzero;stroke:none;stroke-width:4;marker:none;visibility:visible;display:inline;overflow:visible;enable-background:accumulate" id="path844" sodipodi:cx="252" sodipodi:cy="552.36218" sodipodi:rx="12" sodipodi:ry="12" d="m 264,552.36218 c 0,6.62742 -5.37258,12 -12,12 -6.62742,0 -12,-5.37258 -12,-12 0,-6.62741 5.37258,-12 12,-12 6.62742,0 12,5.37259 12,12 z" transform="matrix(1.4999992,0,0,1.4999992,-29.999795,-237.54282)"></path>
        </g>
        <g id="g862">
          <path transform="matrix(1.4999992,0,0,1.4999992,-29.999795,-238.54282)" d="m 264,552.36218 c 0,6.62742 -5.37258,12 -12,12 -6.62742,0 -12,-5.37258 -12,-12 0,-6.62741 5.37258,-12 12,-12 6.62742,0 12,5.37259 12,12 z" sodipodi:ry="12" sodipodi:rx="12" sodipodi:cy="552.36218" sodipodi:cx="252" id="path4398" style="color:#000000;fill:#f5f5f5;fill-opacity:1;fill-rule:nonzero;stroke:none;stroke-width:4;marker:none;visibility:visible;display:inline;overflow:visible;enable-background:accumulate" sodipodi:type="arc"></path>
          <path sodipodi:type="arc" style="color:#000000;fill:#dd4814;fill-opacity:1;fill-rule:nonzero;stroke:none;stroke-width:4;marker:none;visibility:visible;display:inline;overflow:visible;enable-background:accumulate" id="path4400" sodipodi:cx="252" sodipodi:cy="552.36218" sodipodi:rx="12" sodipodi:ry="12" d="m 264,552.36218 c 0,6.62742 -5.37258,12 -12,12 -6.62742,0 -12,-5.37258 -12,-12 0,-6.62741 5.37258,-12 12,-12 6.62742,0 12,5.37259 12,12 z" transform="matrix(1.25,0,0,1.25,33,-100.45273)"></path>
          <path transform="matrix(1.511423,-0.16366377,0.16366377,1.511423,-755.37346,-191.93651)" d="m 669.8173,595.77657 c -0.39132,0.22593 -3.62645,-1.90343 -4.07583,-1.95066 -0.44938,-0.0472 -4.05653,1.36297 -4.39232,1.06062 -0.3358,-0.30235 0.68963,-4.03715 0.59569,-4.47913 -0.0939,-0.44198 -2.5498,-3.43681 -2.36602,-3.8496 0.18379,-0.41279 4.05267,-0.59166 4.44398,-0.81759 0.39132,-0.22593 2.48067,-3.48704 2.93005,-3.4398 0.44938,0.0472 1.81505,3.67147 2.15084,3.97382 0.3358,0.30236 4.08294,1.2817 4.17689,1.72369 0.0939,0.44198 -2.9309,2.86076 -3.11469,3.27355 -0.18379,0.41279 0.0427,4.27917 -0.34859,4.5051 z" inkscape:randomized="0" inkscape:rounded="0.1" inkscape:flatsided="false" sodipodi:arg2="1.6755161" sodipodi:arg1="1.0471976" sodipodi:r2="4.3458705" sodipodi:r1="7.2431178" sodipodi:cy="589.50385" sodipodi:cx="666.19574" sodipodi:sides="5" id="path4459" style="color:#000000;fill:#f5f5f5;fill-opacity:1;fill-rule:nonzero;stroke:none;stroke-width:3;marker:none;visibility:visible;display:inline;overflow:visible;enable-background:accumulate" sodipodi:type="star"></path>
        </g>
      </g>
    </g>
  </g>
</svg>
